<svg xmlns="http://www.w3.org/2000/svg" xmlns:xlink="http://www.w3.org/1999/xlink" width="304.531" height="410" viewBox="0 0 304.531 410">
  <defs>
    <linearGradient id="linear-gradient" x1="0.5" x2="0.5" y2="1" gradientUnits="objectBoundingBox">
      <stop offset="0" stop-color="#00aeef"/>
      <stop offset="1" stop-color="#21409a"/>
    </linearGradient>
  </defs>
  <g id="Group_170" data-name="Group 170" transform="translate(-875.469 -179)">
    <g id="Group_20" data-name="Group 20" transform="translate(121 735)">
      <rect id="Rectangle_11" data-name="Rectangle 11" width="11" height="11" rx="3" transform="translate(797 -234)" fill="url(#linear-gradient)"/>
      <rect id="Rectangle_11-2" data-name="Rectangle 11" width="11" height="11" rx="3" transform="translate(814 -234)" fill="url(#linear-gradient)"/>
      <rect id="Rectangle_11-3" data-name="Rectangle 11" width="11" height="11" rx="3" transform="translate(831 -234)" fill="url(#linear-gradient)"/>
      <rect id="Rectangle_11-4" data-name="Rectangle 11" width="11" height="12" rx="3" transform="translate(797 -218)" fill="url(#linear-gradient)"/>
      <rect id="Rectangle_11-5" data-name="Rectangle 11" width="11" height="12" rx="3" transform="translate(814 -218)" fill="url(#linear-gradient)"/>
      <rect id="Rectangle_11-6" data-name="Rectangle 11" width="11" height="12" rx="3" transform="translate(831 -218)" fill="url(#linear-gradient)"/>
      <rect id="Rectangle_11-7" data-name="Rectangle 11" width="11" height="11" rx="3" transform="translate(797 -201)" fill="url(#linear-gradient)"/>
      <rect id="Rectangle_11-8" data-name="Rectangle 11" width="11" height="11" rx="3" transform="translate(814 -201)" fill="url(#linear-gradient)"/>
      <rect id="Rectangle_11-9" data-name="Rectangle 11" width="11" height="11" rx="3" transform="translate(831 -201)" fill="url(#linear-gradient)"/>
    </g>
    <g id="Group_23" data-name="Group 23" transform="translate(109 413)" opacity="0.19">
      <rect id="Rectangle_11-10" data-name="Rectangle 11" width="11" height="11" rx="3" transform="translate(797 -234)" fill="url(#linear-gradient)"/>
      <rect id="Rectangle_11-11" data-name="Rectangle 11" width="11" height="11" rx="3" transform="translate(814 -234)" fill="url(#linear-gradient)"/>
      <rect id="Rectangle_11-12" data-name="Rectangle 11" width="11" height="11" rx="3" transform="translate(831 -234)" fill="url(#linear-gradient)"/>
      <rect id="Rectangle_11-13" data-name="Rectangle 11" width="11" height="12" rx="3" transform="translate(797 -218)" fill="url(#linear-gradient)"/>
      <rect id="Rectangle_11-14" data-name="Rectangle 11" width="11" height="12" rx="3" transform="translate(814 -218)" fill="url(#linear-gradient)"/>
      <rect id="Rectangle_11-15" data-name="Rectangle 11" width="11" height="12" rx="3" transform="translate(831 -218)" fill="url(#linear-gradient)"/>
      <rect id="Rectangle_11-16" data-name="Rectangle 11" width="11" height="11" rx="3" transform="translate(797 -201)" fill="url(#linear-gradient)"/>
      <rect id="Rectangle_11-17" data-name="Rectangle 11" width="11" height="11" rx="3" transform="translate(814 -201)" fill="url(#linear-gradient)"/>
      <rect id="Rectangle_11-18" data-name="Rectangle 11" width="11" height="11" rx="3" transform="translate(831 -201)" fill="url(#linear-gradient)"/>
    </g>
    <g id="Group_24" data-name="Group 24" transform="translate(338 779)" opacity="0.19">
      <rect id="Rectangle_11-19" data-name="Rectangle 11" width="11" height="11" rx="3" transform="translate(797 -234)" fill="url(#linear-gradient)"/>
      <rect id="Rectangle_11-20" data-name="Rectangle 11" width="11" height="11" rx="3" transform="translate(814 -234)" fill="url(#linear-gradient)"/>
      <rect id="Rectangle_11-21" data-name="Rectangle 11" width="11" height="11" rx="3" transform="translate(831 -234)" fill="url(#linear-gradient)"/>
      <rect id="Rectangle_11-22" data-name="Rectangle 11" width="11" height="12" rx="3" transform="translate(797 -218)" fill="url(#linear-gradient)"/>
      <rect id="Rectangle_11-23" data-name="Rectangle 11" width="11" height="12" rx="3" transform="translate(814 -218)" fill="url(#linear-gradient)"/>
      <rect id="Rectangle_11-24" data-name="Rectangle 11" width="11" height="12" rx="3" transform="translate(831 -218)" fill="url(#linear-gradient)"/>
      <rect id="Rectangle_11-25" data-name="Rectangle 11" width="11" height="11" rx="3" transform="translate(797 -201)" fill="url(#linear-gradient)"/>
      <rect id="Rectangle_11-26" data-name="Rectangle 11" width="11" height="11" rx="3" transform="translate(814 -201)" fill="url(#linear-gradient)"/>
      <rect id="Rectangle_11-27" data-name="Rectangle 11" width="11" height="11" rx="3" transform="translate(831 -201)" fill="url(#linear-gradient)"/>
    </g>
    <g id="Group_22" data-name="Group 22" transform="translate(316 474)">
      <rect id="Rectangle_11-28" data-name="Rectangle 11" width="11" height="11" rx="3" transform="translate(797 -234)" fill="url(#linear-gradient)"/>
      <rect id="Rectangle_11-29" data-name="Rectangle 11" width="11" height="11" rx="3" transform="translate(814 -234)" fill="url(#linear-gradient)"/>
      <rect id="Rectangle_11-30" data-name="Rectangle 11" width="11" height="11" rx="3" transform="translate(831 -234)" fill="url(#linear-gradient)"/>
      <rect id="Rectangle_11-31" data-name="Rectangle 11" width="11" height="12" rx="3" transform="translate(797 -218)" fill="url(#linear-gradient)"/>
      <rect id="Rectangle_11-32" data-name="Rectangle 11" width="11" height="12" rx="3" transform="translate(814 -218)" fill="url(#linear-gradient)"/>
      <rect id="Rectangle_11-33" data-name="Rectangle 11" width="11" height="12" rx="3" transform="translate(831 -218)" fill="url(#linear-gradient)"/>
      <rect id="Rectangle_11-34" data-name="Rectangle 11" width="11" height="11" rx="3" transform="translate(797 -201)" fill="url(#linear-gradient)"/>
      <rect id="Rectangle_11-35" data-name="Rectangle 11" width="11" height="11" rx="3" transform="translate(814 -201)" fill="url(#linear-gradient)"/>
      <rect id="Rectangle_11-36" data-name="Rectangle 11" width="11" height="11" rx="3" transform="translate(831 -201)" fill="url(#linear-gradient)"/>
    </g>
    <g id="Group_169" data-name="Group 169" transform="translate(875.469 251.141)">
      <path id="Path_253" data-name="Path 253" d="M357.9,389.944l0,.113,5.636,59.6H322.4l-5.331-36.6-2.346,35.664-42.234-.469,4.486-46.823,3.815-21.7v0l.573-3.266h75.411l.1,1.183Z" transform="translate(-144.621 -199.794)" fill="#2f2e41"/>
      <path id="Path_254" data-name="Path 254" d="M216.156,325.777c4.356.794,8.9-4.112,10.144-10.956a17.413,17.413,0,0,0-.366-8.215l.668-3.946,11.208-53.078s20.638-41.284,20.638-48.451a13.046,13.046,0,0,0-5.97-10.682l-8.078.076L219.068,252.4l-4.562,45.72-.738,6.273a17.412,17.412,0,0,0-3.239,7.558c-1.247,6.845,1.273,13.036,5.629,13.83Z" transform="translate(-111.565 -101.078)" fill="#ffb6b6"/>
      <path id="Path_255" data-name="Path 255" d="M360.043,116.311l-7.508-17.363-24.4,4.223L326.491,123.6Z" transform="translate(-173.28 -52.515)" fill="#ffb6b6"/>
      <path id="Path_256" data-name="Path 256" d="M360.043,116.311l-7.508-17.363-24.4,4.223L326.491,123.6Z" transform="translate(-173.28 -52.515)" opacity="0.1"/>
      <path id="Path_257" data-name="Path 257" d="M361.324,156.791s-17.363-32.379-20.648-35.664c-1.462-1.462-3.761-1.483-5.863-1.056l-24.17-8.329-8.192-4.6-.54,8.757-26.9,4.828c.149-5.341.9-7.372.9-7.372l-9.855,11.53-19.24,9.385.011.085a7.655,7.655,0,0,0-3.765,2.731c-3.754,5.162-14.078,68.043-14.078,68.043l22.055,4.693,3-18.836,2.16,16.959,1.642,31.675s30.033,25.81,44.58,16.424,32.379-8.916,32.379-8.916l.445-14.682c.317-.506.494-.8.494-.8l-.469-52.081V165.7c3.575,4.981,7.889,9.264,12.9,11.27,16.424,6.57,13.139-20.178,13.139-20.178Z" transform="translate(-121.534 -56.862)" fill="#e6e6e6"/>
      <circle id="Ellipse_23" data-name="Ellipse 23" cx="22.449" cy="22.449" r="22.449" transform="translate(142.055 8.813)" fill="#ffb6b6"/>
      <path id="Path_258" data-name="Path 258" d="M335.595,37.607s1.952-6.832,6.344-6.344,5.368-3.416,4.392-5.368S343.4,14.182,343.4,14.182s.976-6.832-4.88-7.808-7.808-1.952-8.784-3.9-15.617-3.9-20.5-.976-8.784,8.546-12.2,10.129-6.344,4.511-4.392,9.391,4.783,14.425,4.783,14.425,4.977-1.736,5.953,1.192-2.928-.976,1.952-8.784,4.88-15.617,12.688-12.688,16.593,1.952,15.617,7.808,1.952,14.641,1.952,14.641Z" transform="translate(-154.987)" fill="#2f2e41"/>
      <g id="Group_167" data-name="Group 167" transform="translate(0 107.52)">
        <path id="Path_259" data-name="Path 259" d="M179.235,337.177H8.744A8.754,8.754,0,0,1,0,328.433V237.869a8.754,8.754,0,0,1,8.744-8.744H179.235a8.754,8.754,0,0,1,8.744,8.744v90.565a8.754,8.754,0,0,1-8.744,8.744Z" transform="translate(0 -229.125)" fill="#fff"/>
        <path id="Path_260" data-name="Path 260" d="M179.235,337.177H8.744A8.754,8.754,0,0,1,0,328.433V237.869a8.754,8.754,0,0,1,8.744-8.744H179.235a8.754,8.754,0,0,1,8.744,8.744v90.565a8.754,8.754,0,0,1-8.744,8.744ZM8.744,230.585a7.292,7.292,0,0,0-7.284,7.284v90.565a7.292,7.292,0,0,0,7.284,7.284H179.235a7.292,7.292,0,0,0,7.284-7.284V237.869a7.292,7.292,0,0,0-7.284-7.284H8.744Z" transform="translate(0 -229.125)" fill="#3f3d56"/>
        <circle id="Ellipse_24" data-name="Ellipse 24" cx="2.19" cy="2.19" r="2.19" transform="translate(163.886 6.571)" fill="#3f3d56"/>
        <circle id="Ellipse_25" data-name="Ellipse 25" cx="2.19" cy="2.19" r="2.19" transform="translate(169.727 6.571)" fill="#3f3d56"/>
        <circle id="Ellipse_26" data-name="Ellipse 26" cx="2.19" cy="2.19" r="2.19" transform="translate(175.568 6.571)" fill="#3f3d56"/>
        <path id="Path_261" data-name="Path 261" d="M25.21,323.251a1.1,1.1,0,0,0-1.1,1.1,1.105,1.105,0,0,0,1.1,1.1H189.1a1.1,1.1,0,0,0,1.1-1.1,1.105,1.105,0,0,0-1.1-1.1Z" transform="translate(-12.799 -279.081)" fill="#e6e6e6"/>
        <path id="Path_262" data-name="Path 262" d="M168.241,322.473v2.92H24.8a1.471,1.471,0,0,1-1.46-1.46,1.464,1.464,0,0,1,1.46-1.46Z" transform="translate(-12.386 -278.668)" fill="#0b87d1"/>
        <path id="Path_263" data-name="Path 263" d="M351.983,304.2h-14.6a2.92,2.92,0,0,1,0-5.841h14.6a2.92,2.92,0,1,1,0,5.841Z" transform="translate(-177.51 -265.87)" fill="#e6e6e6"/>
        <path id="Path_264" data-name="Path 264" d="M90.8,271.527H25.48a2.92,2.92,0,1,1,0-5.841H90.8a2.92,2.92,0,1,1,0,5.841Z" transform="translate(-11.973 -248.529)" fill="#e6e6e6"/>
        <path id="Path_265" data-name="Path 265" d="M25.21,393.262a1.1,1.1,0,0,0-1.1,1.1,1.105,1.105,0,0,0,1.1,1.1H189.1a1.1,1.1,0,0,0,1.1-1.1,1.105,1.105,0,0,0-1.1-1.1Z" transform="translate(-12.799 -316.238)" fill="#e6e6e6"/>
        <path id="Path_266" data-name="Path 266" d="M112.025,392.484v2.92H24.8a1.471,1.471,0,0,1-1.46-1.46,1.464,1.464,0,0,1,1.46-1.46Z" transform="translate(-12.386 -315.825)" fill="#0b87d1"/>
        <path id="Path_267" data-name="Path 267" d="M351.983,374.21h-14.6a2.92,2.92,0,0,1,0-5.841h14.6a2.92,2.92,0,0,1,0,5.841Z" transform="translate(-177.51 -303.027)" fill="#e6e6e6"/>
      </g>
      <g id="Group_168" data-name="Group 168" transform="translate(177.17 10.672)">
        <ellipse id="Ellipse_27" data-name="Ellipse 27" cx="22.866" cy="22.384" rx="22.866" ry="22.384" fill="#0b87d1"/>
        <path id="Path_268" data-name="Path 268" d="M423.676,45.79,414.543,62.42q-2.91-5.142-5.815-10.287A1.058,1.058,0,0,0,406.9,53.2c2.255,3.971,4.486,7.955,6.74,11.925a1.066,1.066,0,0,0,1.825,0L425.5,46.857C426.156,45.664,424.332,44.6,423.676,45.79Z" transform="translate(-393.05 -34.697)" fill="#fff"/>
      </g>
      <path id="Path_269" data-name="Path 269" d="M443.949,154.656l-22.781-10.9s-.915-7.294-5.187-9.9c-.726-1.733-1.562-3.636-2.321-5.145-1.877-3.73.938-10.769-1.408-10.769s-5.815,7.4-5.631,9.385c.141,1.522,1.4,4.179,1.659,6.5a20.072,20.072,0,0,0-6.687,4.4,4.939,4.939,0,0,0-1.288,4.932c1.487,5.09,5.2,15.6,10.54,15.6,7.039,0,8.916-1.408,8.916-1.408s14.547,18.3,25.34,19.709-1.151-22.42-1.151-22.42Z" transform="translate(-212.349 -62.6)" fill="#ffb6b6"/>
    </g>
  </g>
</svg>
