<svg id="Group_83" data-name="Group 83" xmlns="http://www.w3.org/2000/svg" width="441" height="326.957" viewBox="0 0 441 326.957">
  <path id="Path_156" data-name="Path 156" d="M211.024,116.965H55.681L26.8,149.13V116.965H0V0H211.024Z" fill="#e5e5e5"/>
  <rect id="Rectangle_14" data-name="Rectangle 14" width="141.82" height="6.336" transform="translate(34.602 34.359)" fill="#fff"/>
  <rect id="Rectangle_15" data-name="Rectangle 15" width="141.82" height="6.336" transform="translate(34.602 55.315)" fill="#fff"/>
  <rect id="Rectangle_16" data-name="Rectangle 16" width="141.82" height="6.336" transform="translate(34.602 76.271)" fill="#fff"/>
  <circle id="Ellipse_17" data-name="Ellipse 17" cx="5.333" cy="5.333" r="5.333" transform="translate(21.898 158.151)" fill="#e6e6e6"/>
  <path id="Path_157" data-name="Path 157" d="M622.535,524.416h-5.976l-2.843-23.049h8.819Z" transform="translate(-250.039 -204.266)" fill="#9f616a"/>
  <path id="Path_158" data-name="Path 158" d="M845.822,718.84H826.553V718.6a7.5,7.5,0,0,1,7.5-7.5h11.769Z" transform="translate(-471.802 -392.897)" fill="#2f2e41"/>
  <path id="Path_159" data-name="Path 159" d="M526.418,522.512l-5.666-1.9,4.631-22.758,8.362,2.8Z" transform="translate(-212.163 -202.835)" fill="#9f616a"/>
  <path id="Path_160" data-name="Path 160" d="M744.984,715.786l-18.268-6.125.077-.231a7.5,7.5,0,0,1,9.495-4.727h0l11.158,3.741Z" transform="translate(-431.126 -390.133)" fill="#2f2e41"/>
  <path id="Path_161" data-name="Path 161" d="M761.747,497.955l-12.94,109.467,12.692,1.07s19.964-107.627,26.119-94.877,13.7,92.488,13.7,92.488h12.6s3.23-124.415-9.959-130.569Z" transform="translate(-440.127 -296.924)" fill="#2f2e41"/>
  <circle id="Ellipse_18" data-name="Ellipse 18" cx="12.749" cy="12.749" r="12.749" transform="translate(327.838 118.977) rotate(-80.009)" fill="#9f616a"/>
  <path id="Path_162" data-name="Path 162" d="M781.93,386.879,798.2,388.2s12.969.22,18.245,3.737-5.056,25.279-5.056,25.279-2.686,8.628-.659,12.529c6.575,12.659,5.6,22.407,5.6,22.407s-13.514,3.091-36.814,9.246c0,0-14.508,5.715-14.068,2.638s4.836-38.248,4.836-38.248V389.3Z" transform="translate(-446.901 -260.805)" fill="#3f3d56"/>
  <path id="Path_163" data-name="Path 163" d="M815.154,338.415c-.651-3.631-2.109-8.781-5.356-12.686.1,0,.2.005.307,0a3.08,3.08,0,0,0,2.847-1.4,2.432,2.432,0,0,0-.445-2.426,7.163,7.163,0,0,0-2.032-1.588c.783.476,1.89.917,2.516.247a1.357,1.357,0,0,0,.153-1.449,3.593,3.593,0,0,0-.977-1.179,24.024,24.024,0,0,0-4.3-3.031c-1.191-.658-2.758-1.187-3.828-.345-1.089.858-.914,2.528-.634,3.886a4.471,4.471,0,0,0-2-.6,1.532,1.532,0,0,0-1.535,1.179,1.574,1.574,0,0,0,.709,1.375c-4.2-.691-9.575.093-16.441,3.27,0,0-6.658,2.219-7,10.984a15.552,15.552,0,0,0,.462,4.162c.375,1.589,1.71,9.383.109,12.533l8.018,2.857.092-4.8c-6.232-9-3.153-12.3-.727-17.707a.057.057,0,0,1,.1-.008c.448.769,2.167,3.407,8.08,3.407L791,332.806s10.054,4.113,13.71,4.113c0,0,2.742,1.828,0,4.57s-8.743,6.778-5.544,11.805,2.924,6.811,2.924,6.811l7.312-4.113s4.466-8.837,5.258-11.439A13.125,13.125,0,0,0,815.154,338.415Z" transform="translate(-451.669 -231.164)" fill="#2f2e41"/>
  <path id="Path_164" data-name="Path 164" d="M465.118,348.182H610.585V428.81H592.107v22.173L572.2,428.81H465.118Z" transform="translate(-189.497 -141.855)" fill="#0b87d1"/>
  <rect id="Rectangle_17" data-name="Rectangle 17" width="97.761" height="4.367" transform="translate(299.473 230.011)" fill="#fff"/>
  <rect id="Rectangle_18" data-name="Rectangle 18" width="97.761" height="4.367" transform="translate(299.473 244.457)" fill="#fff"/>
  <rect id="Rectangle_19" data-name="Rectangle 19" width="97.761" height="4.367" transform="translate(299.473 258.903)" fill="#fff"/>
  <path id="Path_165" data-name="Path 165" d="M840.29,435.125l-8.532,2.074-.065,17.268-9.6,33.122a5.361,5.361,0,1,0,8.425,2.551l11.472-34.288Z" transform="translate(-469.157 -280.461)" fill="#9f616a"/>
  <path id="Path_166" data-name="Path 166" d="M758.369,434.513l10.236,2.925.065,17.268,9.6,33.122a5.361,5.361,0,1,1-8.425,2.551L758.369,456.09Z" transform="translate(-444.022 -280.212)" fill="#9f616a"/>
  <path id="Path_167" data-name="Path 167" d="M832.591,391.806l2.115-.689a4.811,4.811,0,0,1,3.6.25h0s6.155.44,7.034,4.836,3.018,42.822,3.018,42.822l-13.037-4.148Z" transform="translate(-474.262 -262.435)" fill="#3f3d56"/>
  <path id="Path_168" data-name="Path 168" d="M771.385,391.906l-3.743-.188-1.185-.593s-6.942.781-7.821,5.177S755.2,440.31,755.2,440.31l13.037-3.556Z" transform="translate(-442.73 -262.535)" fill="#3f3d56"/>
  <path id="Path_169" data-name="Path 169" d="M403.88,637.383l6.179-5.391a103.228,103.228,0,0,0-1.445-11.544l-3.41,1.443,3.164-2.76c-.91-4.712-1.812-7.775-1.812-7.775s-12.468,11.072-19.445,24.578L390.172,646l-4.675-6.657a41.769,41.769,0,0,0-1.777,4.938c-4.865,16.97-3.266,32.316,3.571,34.276s16.323-10.208,21.188-27.179a54.977,54.977,0,0,0,1.714-16.669Z" transform="translate(-290.237 -352.261)" fill="#f1f1f1"/>
  <path id="Path_170" data-name="Path 170" d="M421.8,663.178l8.076-1.42a103.229,103.229,0,0,0,4.73-10.629l-3.665-.528,4.135-.727c1.656-4.5,2.468-7.592,2.468-7.592s-16.4,3.033-29.35,10.989l-2.584,10.2-.561-8.115a41.783,41.783,0,0,0-4.073,3.309c-12.937,12.013-19.5,25.976-14.661,31.188s19.25-.3,32.187-12.314a54.976,54.976,0,0,0,10.083-13.383Z" transform="translate(-291.792 -364.86)" fill="#f1f1f1"/>
  <path id="Path_171" data-name="Path 171" d="M718.909,724.31H352.693a.593.593,0,0,1,0-1.185H718.909a.593.593,0,1,1,0,1.185Z" transform="translate(-278.501 -397.797)" fill="#cbcbcb"/>
</svg>
