<svg xmlns="http://www.w3.org/2000/svg" xmlns:xlink="http://www.w3.org/1999/xlink" width="342.214" height="344.326" viewBox="0 0 342.214 344.326">
  <defs>
    <linearGradient id="linear-gradient" x1="0.5" x2="0.5" y2="1" gradientUnits="objectBoundingBox">
      <stop offset="0" stop-color="#00aeef"/>
      <stop offset="1" stop-color="#21409a"/>
    </linearGradient>
  </defs>
  <g id="Group_45" data-name="Group 45" transform="translate(-811 -950)">
    <g id="Group_43" data-name="Group 43" transform="translate(831.752 950)">
      <path id="Path_52" data-name="Path 52" d="M116.126,88.744l-2.451,12.867,12.219,3.445-1.518-13.737Z" transform="translate(-44.027 -34.371)" fill="#a0616a"/>
      <path id="Path_53" data-name="Path 53" d="M0,522.984a.727.727,0,0,0,.729.729h320a.729.729,0,0,0,0-1.458H.729A.727.727,0,0,0,0,522.984Z" transform="translate(0 -202.272)" fill="#3f3d56"/>
      <g id="Group_35" data-name="Group 35" transform="translate(65.643 145.398)">
        <path id="Path_54" data-name="Path 54" d="M260.025,238.309H134.013a25.874,25.874,0,0,0-25.874,25.874V386.374a25.874,25.874,0,0,0,25.874,25.874H260.025A25.874,25.874,0,0,0,285.9,386.374V264.183a25.874,25.874,0,0,0-25.874-25.874h0Z" transform="translate(-107.526 -237.696)" fill="#fff"/>
        <path id="Path_55" data-name="Path 55" d="M259.638,412.473H133.626a26.517,26.517,0,0,1-26.487-26.486V263.8a26.517,26.517,0,0,1,26.487-26.487H259.638A26.517,26.517,0,0,1,286.125,263.8V385.987a26.517,26.517,0,0,1-26.487,26.486ZM133.626,238.534A25.29,25.29,0,0,0,108.364,263.8V385.987a25.29,25.29,0,0,0,25.261,25.261H259.638A25.29,25.29,0,0,0,284.9,385.987V263.8a25.29,25.29,0,0,0-25.261-25.261Z" transform="translate(-107.139 -237.308)" fill="#3f3d56"/>
        <path id="Path_56" data-name="Path 56" d="M336.455,319.844h-50.65a3.9,3.9,0,1,1,0-7.792h50.65a3.9,3.9,0,0,1,0,7.792h0Z" transform="translate(-174.828 -266.257)" fill="#0b87d1"/>
        <path id="Path_57" data-name="Path 57" d="M260.836,371.931H211.6a2.251,2.251,0,1,1,0-4.5h49.234a2.251,2.251,0,0,1,0,4.5Z" transform="translate(-146.726 -287.705)" fill="#0b87d1"/>
        <rect id="Rectangle_13" data-name="Rectangle 13" width="28.489" height="3.652" rx="0.31" transform="translate(16.224 8.981)" fill="#0b87d1"/>
        <circle id="Ellipse_2" data-name="Ellipse 2" cx="2.922" cy="2.922" r="2.922" transform="translate(136.28 6.79)" fill="#3f3d56"/>
        <circle id="Ellipse_3" data-name="Ellipse 3" cx="2.922" cy="2.922" r="2.922" transform="translate(144.316 6.79)" fill="#3f3d56"/>
        <circle id="Ellipse_4" data-name="Ellipse 4" cx="2.922" cy="2.922" r="2.922" transform="translate(152.351 6.79)" fill="#3f3d56"/>
        <path id="Path_58" data-name="Path 58" d="M149.868,393.984a.727.727,0,0,0,.729.729H275.764a.729.729,0,0,0,0-1.458H150.6a.727.727,0,0,0-.729.729Z" transform="translate(-123.688 -297.707)" fill="#3f3d56"/>
      </g>
      <g id="Group_39" data-name="Group 39" transform="translate(59.327 32.672)">
        <path id="uuid-d0b76542-8f08-4363-846d-0cc3b89caf22" d="M203.207,99.677c2.665-2.2,5.961-2.612,7.362-.916s.376,4.855-2.29,7.058a8.651,8.651,0,0,1-3.65,1.835L193.22,116.84l-4.2-5.445,11.692-8.478a8.652,8.652,0,0,1,2.491-3.24h0Z" transform="translate(-132.537 -70.518)" fill="#a0616a"/>
        <path id="Path_59" data-name="Path 59" d="M104.553,124.675a8.4,8.4,0,0,1,2.622-6.19c3.014-2.573,7.266-1.532,8.758-1.166,3.446.844,3.728,2.322,6.964,3.841,6.054,2.841-1.531,1.387,2.071.476,1.247-.315,19.185-1.559,23.65-4.308,8.684-5.345,14.6-8.586,14.6-8.586l3.868,7.736a68.948,68.948,0,0,1-13.465,13.539c-8.075,5.91-12.112,8.865-18.248,10.007-.528.1-13.524,2.317-23.99-5.5-2.387-1.784-6.762-5.052-6.83-9.846h0Z" transform="translate(-99.821 -74.788)" fill="#e6e6e6"/>
        <circle id="Ellipse_5" data-name="Ellipse 5" cx="13.475" cy="13.475" r="13.475" transform="translate(3.255 3.262)" fill="#a0616a"/>
        <g id="Group_36" data-name="Group 36" transform="translate(25.579 62.673)">
          <path id="Path_60" data-name="Path 60" d="M283.074,219.418,269.2,205.213l-7.163,7.472,10.339,13.62,10.255,1.173Z" transform="translate(-186.394 -174.826)" fill="#a0616a"/>
          <path id="Path_61" data-name="Path 61" d="M156.021,173.572a9.456,9.456,0,0,0,5.856-.772,8.01,8.01,0,0,0,2.837-2.74c3.616-5.43,17.494-13.9,29.949-14.42a11.916,11.916,0,0,1,6.365,1.088c2.393,1.247,3.348,3.034,6.384,7.219,1.661,2.289,3.5,4.446,5.18,6.721,9.841,13.318,13.572,14.363,13.191,18.633-.423,4.737-5.532,9.231-8.928,8.713-1.391-.212-1.929-1.179-3.787-3.137-5.448-5.74-7.7-4.679-11.58-9.075-4.528-5.133-3.935-9.388-6.3-9.553-2.191-.152-3.122,3.478-7.8,8.3-2.14,2.207-3.664,3.219-8.307,6.44-18.081,12.544-18.37,13.425-22.019,14.426-1.6.438-12.928,3.544-16.964-1.4-6.317-7.736,8.606-31.052,15.92-30.445h0Z" transform="translate(-138.579 -155.617)" fill="#2f2e41"/>
          <path id="Path_62" data-name="Path 62" d="M281.1,229.86c1.021-.458,2.214-.994,2.6-2.226a2.962,2.962,0,0,0-.427-2.572c-.62-.82-1.537-.928-1.5-1.073.056-.221,2.225-.134,4.606.707a18.427,18.427,0,0,1,5.073,2.924c2.074,1.619,1.8,1.944,3.1,2.878,3.993,2.866,7.737.607,9.9,3.3a4.257,4.257,0,0,1,.839,3.7c-.7,2.391-4.131,3.214-6,3.639-4.51,1.023-7.924.188-11.489-.413-12.123-2.043-18.935-.182-19.846-2.991-.173-.532.108-.486,1.043-4.387.923-3.85.892-4.907,1.678-5.216,1.183-.464,1.977,1.647,4.956,2.369a8.443,8.443,0,0,0,5.48-.635Z" transform="translate(-188.665 -182.057)" fill="#2f2e41"/>
        </g>
        <g id="Group_37" data-name="Group 37" transform="translate(16.689 86.11)">
          <path id="Path_63" data-name="Path 63" d="M247.492,291.887l-3.506-19.547-10.124,2.16.907,17.076,7.827,6.729Z" transform="translate(-166.593 -224.261)" fill="#a0616a"/>
          <path id="Path_64" data-name="Path 64" d="M154.36,194.957a9.456,9.456,0,0,0,5.28,2.65,8.01,8.01,0,0,0,3.886-.674c6.041-2.463,22.28-1.677,32.879,4.886a11.916,11.916,0,0,1,4.655,4.475c1.28,2.376,1.067,4.391,1.229,9.559.089,2.827.4,5.644.512,8.47.665,16.546,3.165,19.506.452,22.825-3.01,3.682-9.761,4.532-12.28,2.2-1.031-.957-.934-2.059-1.372-4.722-1.285-7.808-3.745-8.2-4.486-14.012-.865-6.79,2.016-9.978.153-11.441-1.727-1.356-4.536,1.125-11.115,2.489-3.01.624-4.84.606-10.49.664-22,.226-22.739.793-26.32-.428-1.567-.534-12.687-4.327-13.251-10.684-.882-9.948,24.558-20.862,30.268-16.252h0Z" transform="translate(-124.069 -193.869)" fill="#2f2e41"/>
          <path id="Path_65" data-name="Path 65" d="M237.718,300.062c1.1.194,2.39.421,3.4-.383a2.962,2.962,0,0,0,1.091-2.368c-.052-1.026-.751-1.631-.638-1.73.171-.151,1.917,1.138,3.414,3.171a18.427,18.427,0,0,1,2.556,5.268c.807,2.5.394,2.616.946,4.12,1.694,4.613,6.061,4.847,6.339,8.284a4.257,4.257,0,0,1-1.384,3.533c-1.926,1.583-5.224.34-7.012-.36-4.307-1.686-6.662-4.294-9.275-6.793-8.884-8.5-15.565-10.783-14.742-13.619.156-.537.362-.342,3.326-3.045,2.925-2.668,3.494-3.56,4.317-3.373,1.239.28.711,2.473,2.771,4.744a8.444,8.444,0,0,0,4.891,2.552h0Z" transform="translate(-162.132 -232.163)" fill="#2f2e41"/>
        </g>
        <path id="Path_66" data-name="Path 66" d="M116.215,72.639c.525-1.876-.134-2.56.537-3.4a8.825,8.825,0,0,1,2.686-1.254h0c-.713-4.136-.179-4.835-.179-4.835a3.031,3.031,0,0,1,2.686-.9c1.774.223,2.088,1.827,3.224,1.791,1.568-.05,3.449-3.189,2.865-5.91-.476-2.219-2.53-3.868-3.044-3.582s-2.348-.967-3.044-.716c-.476.171-2.716-.057-3.224.179-.555.257-2.143,1.859-2.295,1.658-1.055-1.4-1.033-1.892-1.645-2.195-1.085-.536-2.264.454-4.3,1.433-4.184,2.013-5.41.812-7.343,2.507-.976.856-1.5,2.493-2.507,5.731-1.409,4.528-2.113,6.792-1.433,8.954.694,2.2,1.716,1.725,3.224,4.835,1.679,3.462,1.1,5.475,2.686,6.268a3.368,3.368,0,0,0,3.94-.9c1.274-1.915-2.018-4.5-.9-7.522.689-1.852,2.815-3.256,4.119-2.865,1.474.442,1.583,3.085,2.507,3.044.792-.035,1.341-2,1.433-2.328h0Z" transform="translate(-97.647 -53.326)" fill="#2f2e41"/>
        <path id="Path_67" data-name="Path 67" d="M105.384,105.122c2.757-3.092,13.989.108,15.043,5.014.434,2.018-1.167,2.87-.716,5.193.659,3.4,4.392,3.167,7.163,6.626,3.934,4.911-.119,9.712,4.3,17.909a14.51,14.51,0,0,0,3.4,4.656c3.817,3.278,7.369,2.154,9.312,5.193a7.9,7.9,0,0,1,.716,5.731c-.574,2.691-2.128,3.347-3.224,5.552-1.823,3.669.241,6.362.358,10.745.147,5.484-2.768,13.086-8.6,15.58-6.548,2.8-14.445-1.839-18.267-6.447-2.28-2.75-2.942-5.286-3.94-8.417-4.459-13.992-6.977-12.727-10.387-23.818-3.9-12.68-4.664-27.535,0-32.236a13.425,13.425,0,0,0,3.4-4.656c1.458-3.489.2-5.242,1.433-6.626h0Z" transform="translate(-97.024 -72.914)" fill="#e6e6e6"/>
        <g id="Group_38" data-name="Group 38" transform="translate(0 43.801)">
          <path id="uuid-35da8825-ceb1-46f8-a8e3-884fcc945dd4" d="M166.276,214.569c2.138,2.716,2.469,6.021.74,7.381s-4.863.261-7-2.457a8.651,8.651,0,0,1-1.748-3.693l-8.913-11.623,4.605-3.513L163.1,212a8.651,8.651,0,0,1,3.18,2.568h0Z" transform="translate(-117.173 -154.192)" fill="#a0616a"/>
          <path id="Path_68" data-name="Path 68" d="M113.291,125a8.4,8.4,0,0,1,6.595,1.3c3.134,2.425,2.982,6.8,2.929,8.336-.123,3.545-1.512,4.123-2.339,7.6-1.546,6.506,1.4,12.552,3.025,15.893a34.693,34.693,0,0,0,5.974,8.5,75.425,75.425,0,0,0,13.254,11.31l-6.714,5.968s-10.694-3.26-17.941-9.79c-7.433-6.7-18.864-30.4-21.234-36.175-.2-.5,2.687,7.586,8.206-4.256,1.259-2.7,3.566-7.65,8.245-8.7h0Z" transform="translate(-96.83 -124.814)" fill="#e6e6e6"/>
        </g>
      </g>
      <g id="Group_41" data-name="Group 41" transform="translate(115.365 204.032)">
        <path id="uuid-ba1531a6-e7ab-4297-b996-1d676f43fe3f" d="M269.514,420.309c-4.267.654-7.389,3.386-6.972,6.1s4.214,4.386,8.482,3.732a10.805,10.805,0,0,0,4.745-1.878l18.046-3-1.2-7.133L274.6,420.679a10.805,10.805,0,0,0-5.091-.37Z" transform="translate(-217.034 -365.977)" fill="#ffb6b6"/>
        <path id="Path_69" data-name="Path 69" d="M355.3,384.941l-7,14.849L313.12,411.632l-29.19,1.557-.731-7.011,31.635-6.615,32.462-15.34Z" transform="translate(-225.05 -352.844)" fill="#e6e6e6"/>
        <path id="Path_70" data-name="Path 70" d="M285.865,473.445l-6.283,15.89-8.13-5.543,4.8-16.63Z" transform="translate(-220.5 -384.967)" fill="#ffb6b6"/>
        <path id="Path_71" data-name="Path 71" d="M241.64,467.765l-16.63,15.891,6.651,7.021,17-13.3Z" transform="translate(-202.513 -385.2)" fill="#ffb6b6"/>
        <path id="Path_72" data-name="Path 72" d="M394.277,377.249l-.185-1.293-4.25-8.315-14.043,3.7,2.587,11.456Z" transform="translate(-260.914 -346.422)" fill="#ffb6b6"/>
        <path id="Path_73" data-name="Path 73" d="M350.285,453.1l.432,5.551s1.785,23.274-12.627,25.122-20.695,3.7-29.194-10.717l-13.3-23.651-7.771,9.246-10.337-8.137s7.391-28.825,13.3-29.934a13.476,13.476,0,0,1,2.206-.223,15.226,15.226,0,0,1,12.438,6.216L322.2,449.031l6.1-2.772,21.988,6.837h0Z" transform="translate(-222.836 -366.836)" fill="#2f2e41"/>
        <path id="Path_74" data-name="Path 74" d="M254.569,498.174l3.326-6.282,9.608,6.652s2.217,8.13-1.109,9.239-12.565-.37-12.565-.37-17,3.7-17.369.37,7.761-4.065,7.761-4.065l10.347-5.543h0Z" transform="translate(-206.943 -394.545)" fill="#2f2e41"/>
        <path id="Path_75" data-name="Path 75" d="M295,468.509l-25.684-16.183L256.2,464.075l-8.869-10.347s16.26-24.021,21.064-25.129a123.827,123.827,0,0,1,12.565-1.848l23.651,21.8L295,468.509Z" transform="translate(-211.156 -369.315)" fill="#2f2e41"/>
        <path id="Path_76" data-name="Path 76" d="M210.419,491.288l8.5,9.239-1.121.959s-2.205,9.6-7.379,6.355-5.543-3.988-5.543-3.988-14.782,3.326-16.26-2.587,2.587-4.8,2.587-4.8l3.691,2.217,15.525-7.391h0Z" transform="translate(-188.291 -394.311)" fill="#2f2e41"/>
        <circle id="Ellipse_6" data-name="Ellipse 6" cx="11.826" cy="11.826" r="11.826" transform="translate(107.494 5.328)" fill="#ffb6b6"/>
        <path id="Path_77" data-name="Path 77" d="M369.46,385.179l17-5.174s6.652,15.521,5.543,22.543-11.209,40.473-11.209,40.473l-22.42-12.387s-.37-7.391-1.478-10.717-4.619-13.489,3.141-21.988,9.424-12.75,9.424-12.75h0Z" transform="translate(-252.912 -351.211)" fill="#e6e6e6"/>
        <g id="Group_40" data-name="Group 40" transform="translate(76.653 41.425)">
          <path id="uuid-375aaccb-22f9-42b6-a352-baabb12db8d2" d="M315.88,504.408c-2.767,3.314-3.3,7.428-1.189,9.189s6.062.5,8.829-2.816a10.8,10.8,0,0,0,2.314-4.548l11.545-14.191-5.624-4.551-11.813,13.826a10.806,10.806,0,0,0-4.062,3.092Z" transform="translate(-313.4 -434.265)" fill="#ffb6b6"/>
          <path id="Path_78" data-name="Path 78" d="M373.1,400.619l4.018,15.915-19.666,31.48-20.076,20.177-6.507-5.4L351.116,437.6l15.347-32.459Z" transform="translate(-320.166 -400.619)" fill="#e6e6e6"/>
        </g>
        <path id="Path_79" data-name="Path 79" d="M363.933,348.13c3.033-.007,3.2.013,3.7,0,3.762-.1,4.745-1.579,6.652-1.478,3.4.18-1.089,17.242-2.956,25.129-1.832,7.736,4.359,14.668,4.8,15.152,6.284,6.834,17.323,8.084,19.217,5.174,1.533-2.356-3.9-5.938-2.587-11.087,1.284-5.033,7.212-4.5,8.869-9.239,1.735-4.966-4.1-7.47-7.761-19.586-2.1-6.958-1.732-8.255-3.7-12.565-5.248-11.52-30.974-6.615-28.086,4.065.559,2.066-.928,4.441,1.848,4.435h0Z" transform="translate(-255.516 -333.008)" fill="#2f2e41"/>
      </g>
      <g id="Group_42" data-name="Group 42" transform="translate(130.885)">
        <path id="Path_80" data-name="Path 80" d="M344.282,78.769H220a6.381,6.381,0,0,1-6.374-6.374V6.374A6.381,6.381,0,0,1,220,0H344.282a6.382,6.382,0,0,1,6.374,6.374v66.02a6.382,6.382,0,0,1-6.374,6.374Z" transform="translate(-213.622)" fill="#fff"/>
        <path id="Path_81" data-name="Path 81" d="M344.282,78.769H220a6.381,6.381,0,0,1-6.374-6.374V6.374A6.381,6.381,0,0,1,220,0H344.282a6.382,6.382,0,0,1,6.374,6.374v66.02a6.382,6.382,0,0,1-6.374,6.374ZM220,1.064a5.316,5.316,0,0,0-5.31,5.31v66.02A5.316,5.316,0,0,0,220,77.7H344.282a5.316,5.316,0,0,0,5.31-5.31V6.374a5.316,5.316,0,0,0-5.31-5.31H220Z" transform="translate(-213.622)" fill="#3f3d56"/>
        <circle id="Ellipse_7" data-name="Ellipse 7" cx="1.597" cy="1.597" r="1.597" transform="translate(119.47 4.79)" fill="#3f3d56"/>
        <circle id="Ellipse_8" data-name="Ellipse 8" cx="1.597" cy="1.597" r="1.597" transform="translate(123.728 4.79)" fill="#3f3d56"/>
        <circle id="Ellipse_9" data-name="Ellipse 9" cx="1.597" cy="1.597" r="1.597" transform="translate(127.986 4.79)" fill="#3f3d56"/>
        <path id="Path_82" data-name="Path 82" d="M227.884,52.554a.8.8,0,0,0-.8.8.806.806,0,0,0,.8.8h119.47a.8.8,0,0,0,.8-.8.806.806,0,0,0-.8-.8Z" transform="translate(-218.837 -20.354)" fill="#e6e6e6"/>
        <path id="Path_83" data-name="Path 83" d="M332.285,52.119v2.129H227.716a1.072,1.072,0,0,1-1.064-1.064,1.068,1.068,0,0,1,1.064-1.064Z" transform="translate(-218.669 -20.186)" fill="#0b87d1"/>
        <path id="Path_84" data-name="Path 84" d="M413.135,42.913H402.491a2.129,2.129,0,0,1,0-4.258h10.644a2.129,2.129,0,1,1,0,4.258Z" transform="translate(-285.948 -14.971)" fill="#e6e6e6"/>
        <path id="Path_85" data-name="Path 85" d="M275.967,24.671H228.347a2.129,2.129,0,0,1,0-4.258h47.621a2.129,2.129,0,0,1,0,4.258Z" transform="translate(-218.501 -7.906)" fill="#e6e6e6"/>
        <path id="Path_86" data-name="Path 86" d="M227.884,91.643a.8.8,0,0,0-.8.8.806.806,0,0,0,.8.8h119.47a.8.8,0,0,0,.8-.8.806.806,0,0,0-.8-.8Z" transform="translate(-218.837 -35.494)" fill="#e6e6e6"/>
        <path id="Path_87" data-name="Path 87" d="M291.3,91.209v2.129H227.717a1.072,1.072,0,0,1-1.064-1.064,1.068,1.068,0,0,1,1.064-1.064Z" transform="translate(-218.669 -35.326)" fill="#0b87d1"/>
        <path id="Path_88" data-name="Path 88" d="M413.135,82H402.491a2.129,2.129,0,0,1,0-4.258h10.644a2.129,2.129,0,1,1,0,4.258Z" transform="translate(-285.948 -30.111)" fill="#e6e6e6"/>
      </g>
    </g>
    <g id="Group_44" data-name="Group 44" transform="translate(811 1247.825)">
      <rect id="Rectangle_11" data-name="Rectangle 11" width="11.072" height="12.179" rx="3" transform="translate(0 0)" fill="url(#linear-gradient)"/>
      <rect id="Rectangle_11-2" data-name="Rectangle 11" width="12.179" height="12.179" rx="3" transform="translate(17.715 0)" fill="url(#linear-gradient)"/>
      <rect id="Rectangle_11-3" data-name="Rectangle 11" width="12.179" height="12.179" rx="3" transform="translate(35.429 0)" fill="url(#linear-gradient)"/>
      <rect id="Rectangle_11-4" data-name="Rectangle 11" width="11.072" height="13.286" rx="3" transform="translate(0 16.607)" fill="url(#linear-gradient)"/>
      <rect id="Rectangle_11-5" data-name="Rectangle 11" width="12.179" height="13.286" rx="3" transform="translate(17.715 16.607)" fill="url(#linear-gradient)"/>
      <rect id="Rectangle_11-6" data-name="Rectangle 11" width="12.179" height="13.286" rx="3" transform="translate(35.429 16.607)" fill="url(#linear-gradient)"/>
      <rect id="Rectangle_11-7" data-name="Rectangle 11" width="11.072" height="11.072" rx="3" transform="translate(0 35.429)" fill="url(#linear-gradient)"/>
      <rect id="Rectangle_11-8" data-name="Rectangle 11" width="12.179" height="11.072" rx="3" transform="translate(17.715 35.429)" fill="url(#linear-gradient)"/>
      <rect id="Rectangle_11-9" data-name="Rectangle 11" width="12.179" height="11.072" rx="3" transform="translate(35.429 35.429)" fill="url(#linear-gradient)"/>
    </g>
  </g>
</svg>
