<svg xmlns="http://www.w3.org/2000/svg" xmlns:xlink="http://www.w3.org/1999/xlink" width="350.71" height="371.347" viewBox="0 0 350.71 371.347">
  <defs>
    <linearGradient id="linear-gradient" x1="-21.281" y1="6.845" x2="-21.594" y2="7.462" gradientUnits="objectBoundingBox">
      <stop offset="0" stop-color="#114a8b"/>
      <stop offset="1" stop-color="#0669bc"/>
    </linearGradient>
    <linearGradient id="linear-gradient-2" x1="-15.188" y1="7.133" x2="-15.24" y2="7.149" gradientUnits="objectBoundingBox">
      <stop offset="0" stop-opacity="0.302"/>
      <stop offset="0.071" stop-opacity="0.2"/>
      <stop offset="0.321" stop-opacity="0.102"/>
      <stop offset="0.623" stop-opacity="0.051"/>
      <stop offset="1" stop-opacity="0"/>
    </linearGradient>
    <linearGradient id="linear-gradient-3" x1="-20.647" y1="6.827" x2="-20.321" y2="7.437" gradientUnits="objectBoundingBox">
      <stop offset="0" stop-color="#3ccbf4"/>
      <stop offset="1" stop-color="#2892df"/>
    </linearGradient>
    <linearGradient id="linear-gradient-4" x1="0.5" x2="0.5" y2="1" gradientUnits="objectBoundingBox">
      <stop offset="0" stop-color="#00aeef"/>
      <stop offset="1" stop-color="#21409a"/>
    </linearGradient>
  </defs>
  <g id="Group_71" data-name="Group 71" transform="translate(-859 -1782.774)">
    <g id="Group_70" data-name="Group 70" transform="translate(859 1782.774)">
      <g id="Group_58" data-name="Group 58" transform="translate(19.412 0)">
        <path id="Path_121" data-name="Path 121" d="M182.734,71.876c-.868-1.463-4.622.1-5.312-1.225s2.8-3.339,4.793-7.945c.359-.831,2.624-6.065.948-7.68-3.178-3.061-17.72,9.572-22.809,5.438-1.117-.907-1.9-2.719-5.277-5.659-1.345-1.17-2.158-1.7-2.945-1.5-1.117.279-1.205,1.773-2.4,4.712-1.8,4.407-2.858,4.141-3.9,7.656-.777,2.61-.6,4.127-1.513,4.423-1.293.418-2.484-2.35-4.123-2.1-1.673.253-2.684,3.476-3,5.89-.6,4.529,1.064,7.517,1.986,10.66,1,3.415,1.6,8.608-.717,15.96l-22.9,64.515c5.055-13.238,19.692-49.528,25.843-63.013,1.776-3.893,3.736-7.842,7.761-9.4,3.875-1.5,9.2-.6,15.983-2.239.792-.191,2.992-.75,3.268-2.044.229-1.069-1.065-1.666-.866-2.668.267-1.343,2.81-1.36,5.936-2.91a18.5,18.5,0,0,0,4.758-3.51c.356-.337,5.648-5.408,4.493-7.356h0Z" transform="translate(-74.673 -25.471)" fill="#f2f2f2"/>
        <path id="Path_122" data-name="Path 122" d="M55.178,149.345c-.969,0-1.283,2.3-2.134,2.254s-.831-2.338-2.517-4.645c-.3-.416-2.219-3.038-3.5-2.681-2.419.676-.415,11.459-3.912,12.764a38.7,38.7,0,0,0-4.3.957c-.962.322-1.456.569-1.587,1.012-.185.628.523,1.1,1.619,2.539,1.645,2.153,1.208,2.6,2.631,4.125,1.057,1.134,1.853,1.485,1.734,2.019-.168.755-1.87.541-2.221,1.417-.358.894.932,2.32,2.024,3.173,2.05,1.6,4,1.647,5.8,2.1a15.242,15.242,0,0,1,7.626,4.957L81.509,209.19c-5.039-6.3-18.627-23.955-23.471-30.865-1.4-1.995-2.771-4.1-2.374-6.522.382-2.335,2.357-4.689,3.513-8.491.135-.444.495-1.685-.06-2.194-.459-.421-1.125.042-1.559-.345-.582-.518.143-1.772.285-3.753a10.532,10.532,0,0,0-.35-3.348c-.063-.272-1.025-4.333-2.314-4.328h0Z" transform="translate(-37.203 -68.977)" fill="#f2f2f2"/>
        <path id="Path_123" data-name="Path 123" d="M108.149,141.571l-.584-5.209.267-.395a9.638,9.638,0,0,0,1.87-5.3c0-.269-.011-.538-.024-.812a8.148,8.148,0,0,1,.591-4.012c.395-.878,1.5-2.91,3.172-2.659a1.889,1.889,0,0,1,1.046.511l.118-.186a5.731,5.731,0,0,1,1.327-1.459,6.7,6.7,0,0,0,1.112-1.124c.216-.269.385-.506.527-.7a2.446,2.446,0,0,1,1.988-1.305,2.611,2.611,0,0,1,1.986,1.509A12.555,12.555,0,0,1,122.7,122.7a3.938,3.938,0,0,0,.195.448c.342.5,3.123.033,4.17-.138,2.353-.392,4.389-.732,5.228.752.6,1.061.155,2.465-1.367,4.284a8.507,8.507,0,0,1-1.426,1.333,1.743,1.743,0,0,1,.838,1.094h0c.317,1.263-.768,2.528-3.225,3.766a8.672,8.672,0,0,1-2.582.921,10.14,10.14,0,0,1-1.448.128,1.714,1.714,0,0,1-.213.772c-.431.792-1.329,1.17-2.683,1.079a21.032,21.032,0,0,1-3.8-.611,9.208,9.208,0,0,0-2.4-.357c-1.185.1-2.1,1.044-3.169,2.274l-2.675,3.127h0Z" transform="translate(-70.851 -56.865)" fill="#f2f2f2"/>
        <path id="Path_124" data-name="Path 124" d="M91.094,85.094,86.2,86.98l-.45-.158a9.638,9.638,0,0,0-5.6-.464c-.261.067-.518.147-.78.229a8.148,8.148,0,0,1-4.031.446c-.949-.159-3.2-.717-3.376-2.394a1.889,1.889,0,0,1,.229-1.142l-.21-.067a5.732,5.732,0,0,1-1.748-.913,6.7,6.7,0,0,0-1.37-.79c-.315-.141-.587-.244-.815-.331A2.446,2.446,0,0,1,66.282,79.8a2.611,2.611,0,0,1,.956-2.3,12.556,12.556,0,0,1,1.912-1.694,3.942,3.942,0,0,0,.384-.3c.4-.458-.76-3.029-1.192-4-.976-2.177-1.821-4.06-.6-5.248.874-.851,2.345-.775,4.49.236a8.5,8.5,0,0,1,1.651,1.041,1.743,1.743,0,0,1,.846-1.088h0c1.141-.627,2.64.1,4.46,2.164a8.671,8.671,0,0,1,1.545,2.264,10.146,10.146,0,0,1,.491,1.368,1.715,1.715,0,0,1,.8.01c.876.216,1.469.989,1.724,2.321a21.031,21.031,0,0,1,.372,3.828,9.207,9.207,0,0,0,.263,2.409c.393,1.122,1.542,1.764,3,2.489l3.7,1.795h0Z" transform="translate(-51.089 -31.405)" fill="#f2f2f2"/>
        <path id="Path_125" data-name="Path 125" d="M108.149,52.716l-.584-5.209.267-.395a9.638,9.638,0,0,0,1.87-5.3c0-.269-.011-.538-.024-.812a8.148,8.148,0,0,1,.591-4.012c.395-.878,1.5-2.91,3.172-2.659a1.889,1.889,0,0,1,1.046.511l.118-.186a5.731,5.731,0,0,1,1.327-1.459,6.7,6.7,0,0,0,1.112-1.124c.216-.269.385-.506.527-.7a2.446,2.446,0,0,1,1.988-1.305,2.611,2.611,0,0,1,1.986,1.509,12.556,12.556,0,0,1,1.153,2.279,3.938,3.938,0,0,0,.195.448c.342.5,3.123.033,4.17-.138,2.353-.392,4.389-.732,5.228.752.6,1.061.155,2.465-1.367,4.284a8.506,8.506,0,0,1-1.426,1.333,1.743,1.743,0,0,1,.838,1.094h0c.317,1.263-.768,2.528-3.225,3.766a8.672,8.672,0,0,1-2.582.921,10.142,10.142,0,0,1-1.448.128,1.715,1.715,0,0,1-.213.772c-.431.792-1.329,1.17-2.683,1.079a21.034,21.034,0,0,1-3.8-.611,9.208,9.208,0,0,0-2.4-.357c-1.185.1-2.1,1.044-3.169,2.274l-2.675,3.127h0Z" transform="translate(-70.851 -14.374)" fill="#f2f2f2"/>
        <path id="Path_126" data-name="Path 126" d="M105.284,154.413l-1.092-.684-.264-1.26.264,1.26-1.273.146c-.02-.118-.089-.39-.194-.815a182.169,182.169,0,0,1-3.755-20.581,209.837,209.837,0,0,1-1.7-23.816c-.118-8.024.262-14.1.566-18.981.23-3.683.509-7.189.784-10.6.729-9.126,1.417-17.746.906-27.289A25.284,25.284,0,0,0,96.582,40.5a23.96,23.96,0,0,0-6.154-7.219l1.6-2.017a26.579,26.579,0,0,1,6.808,8A27.691,27.691,0,0,1,102.1,51.652c.521,9.712-.175,18.415-.912,27.629-.272,3.4-.551,6.895-.78,10.562-.3,4.837-.678,10.859-.561,18.78a207.271,207.271,0,0,0,1.679,23.524,179.288,179.288,0,0,0,3.705,20.3c.3,1.225.362,1.482.055,1.967h0Z" transform="translate(-62.656 -14.953)" fill="#f2f2f2"/>
        <path id="Path_127" data-name="Path 127" d="M72.331,22.425c-.106,0-.213,0-.321-.01-2.193-.118-4.225-1.431-6.038-3.9-.85-1.162-1.285-2.488-2.153-5.131a32.17,32.17,0,0,1-1.186-5.32c-.26-1.859-.228-2.636.141-3.323a3.931,3.931,0,0,1,1.815-1.658,1.456,1.456,0,0,1,.1-.76c.439-1.074,1.606-.933,2.237-.865a6.326,6.326,0,0,0,1.148.07A3.237,3.237,0,0,0,69.666.991,7.163,7.163,0,0,1,71.82.144a7.68,7.68,0,0,1,4.052.322c2.786.928,4.159,3.094,5.749,5.6a19.668,19.668,0,0,1,2.123,4.845,5.76,5.76,0,0,1,.289,3.215c-.317,1.23-1.065,1.934-2.966,3.489a34.546,34.546,0,0,1-3.836,2.938c-1.991,1.15-3.241,1.871-4.9,1.871h0Z" transform="translate(-49.283 0)" fill="#f2f2f2"/>
      </g>
      <path id="Path_128" data-name="Path 128" d="M286.706,662.91a.619.619,0,0,0,.621.621H416.36a.619.619,0,0,0,.621-.621.6.6,0,0,0-.167-.423H370a21.73,21.73,0,0,1-2.932-.2h-79.74a.619.619,0,0,0-.621.621Z" transform="translate(-137.106 -316.714)" fill="#3f3d56"/>
      <g id="Group_61" data-name="Group 61" transform="translate(64.702 235.819)">
        <g id="Group_59" data-name="Group 59">
          <path id="Path_129" data-name="Path 129" d="M147.035,452.944h71.834A22.035,22.035,0,0,1,240.9,474.979V532.6a22.035,22.035,0,0,1-22.035,22.035H147.035A22.035,22.035,0,0,1,125,532.6V474.979a22.035,22.035,0,0,1,22.035-22.035Z" transform="translate(-124.478 -452.422)" fill="#fff"/>
          <path id="Path_130" data-name="Path 130" d="M124,532.124V474.5a22.583,22.583,0,0,1,22.557-22.557h71.834A22.583,22.583,0,0,1,240.948,474.5v57.623a22.582,22.582,0,0,1-22.557,22.557H146.557A22.582,22.582,0,0,1,124,532.124Zm22.557-79.136A21.538,21.538,0,0,0,125.044,474.5v57.623a21.537,21.537,0,0,0,21.513,21.513h71.834A21.537,21.537,0,0,0,239.9,532.124V474.5a21.538,21.538,0,0,0-21.513-21.513Z" transform="translate(-124 -451.944)" fill="#3f3d56"/>
        </g>
        <g id="Group_60" data-name="Group 60" transform="translate(31.287 25.751)">
          <path id="Path_131" data-name="Path 131" d="M202.088,501.3h16.09l-16.7,49.488a2.566,2.566,0,0,1-2.43,1.745H186.523a2.561,2.561,0,0,1-2.427-3.38l15.561-46.108a2.566,2.566,0,0,1,2.431-1.746h0Z" transform="translate(-183.961 -501.296)" fill="url(#linear-gradient)"/>
          <path id="Path_132" data-name="Path 132" d="M239.042,564.911H213.528a1.181,1.181,0,0,0-.806,2.045l16.395,15.3a2.577,2.577,0,0,0,1.759.693h14.447l-6.28-18.04Z" transform="translate(-197.535 -531.717)" fill="#0078d4"/>
          <path id="Path_133" data-name="Path 133" d="M202.091,501.3a2.545,2.545,0,0,0-2.437,1.779l-15.537,46.032a2.558,2.558,0,0,0,2.415,3.422h12.845a2.745,2.745,0,0,0,2.107-1.792l3.1-9.131L215.65,551.93a2.618,2.618,0,0,0,1.647.6h14.394l-6.313-18.04-18.4,0,11.263-33.2H202.091Z" transform="translate(-183.964 -501.296)" fill="url(#linear-gradient-2)"/>
          <path id="Path_134" data-name="Path 134" d="M239.427,503.039A2.561,2.561,0,0,0,237,501.3H219.068a2.562,2.562,0,0,1,2.427,1.743l15.562,46.11a2.562,2.562,0,0,1-2.427,3.381h17.932a2.562,2.562,0,0,0,2.427-3.381l-15.562-46.11h0Z" transform="translate(-200.75 -501.296)" fill="url(#linear-gradient-3)"/>
        </g>
      </g>
      <g id="Group_65" data-name="Group 65" transform="translate(0 107.459)">
        <g id="Group_62" data-name="Group 62">
          <path id="Path_135" data-name="Path 135" d="M23.035,206.944H94.869A22.035,22.035,0,0,1,116.9,228.979V286.6a22.035,22.035,0,0,1-22.035,22.035H23.035A22.035,22.035,0,0,1,1,286.6V228.979a22.035,22.035,0,0,1,22.035-22.035h0Z" transform="translate(-0.478 -206.422)" fill="#fff"/>
          <path id="Path_136" data-name="Path 136" d="M0,286.124V228.5a22.583,22.583,0,0,1,22.557-22.557H94.391A22.583,22.583,0,0,1,116.948,228.5v57.623A22.582,22.582,0,0,1,94.391,308.68H22.557A22.582,22.582,0,0,1,0,286.124Zm22.557-79.136A21.538,21.538,0,0,0,1.044,228.5v57.623a21.537,21.537,0,0,0,21.513,21.513H94.391A21.537,21.537,0,0,0,115.9,286.124V228.5a21.538,21.538,0,0,0-21.513-21.513Z" transform="translate(0 -205.944)" fill="#3f3d56"/>
        </g>
        <g id="Group_64" data-name="Group 64" transform="translate(25.597 37.969)">
          <path id="Path_137" data-name="Path 137" d="M70.078,292.992a6.616,6.616,0,0,0,.241,1.946,11.7,11.7,0,0,0,.7,1.575.951.951,0,0,1,.153.5.866.866,0,0,1-.416.656l-1.378.919a1.049,1.049,0,0,1-.569.2,1.006,1.006,0,0,1-.656-.306,6.767,6.767,0,0,1-.787-1.028c-.219-.372-.437-.787-.678-1.29a8.079,8.079,0,0,1-6.429,3.018,5.992,5.992,0,0,1-4.374-1.575,6.17,6.17,0,0,1,.372-8.7,7.956,7.956,0,0,1,5.358-1.706,17.31,17.31,0,0,1,2.318.175c.809.109,1.64.284,2.515.481v-1.6a4.846,4.846,0,0,0-1.028-3.5,5.034,5.034,0,0,0-3.565-1.006,9.951,9.951,0,0,0-2.362.284,17.425,17.425,0,0,0-2.362.744,6.282,6.282,0,0,1-.765.284,1.342,1.342,0,0,1-.35.066c-.306,0-.459-.219-.459-.678V281.38a1.384,1.384,0,0,1,.153-.765,1.637,1.637,0,0,1,.612-.459,12.59,12.59,0,0,1,2.756-.984,13.26,13.26,0,0,1,3.412-.415c2.6,0,4.505.59,5.73,1.771a7.237,7.237,0,0,1,1.815,5.38v7.086h.044ZM61.2,296.316a7.087,7.087,0,0,0,2.253-.394,4.873,4.873,0,0,0,2.078-1.4,3.471,3.471,0,0,0,.744-1.4,7.851,7.851,0,0,0,.219-1.9V290.3a18.255,18.255,0,0,0-2.012-.372,16.481,16.481,0,0,0-2.056-.131,5.042,5.042,0,0,0-3.258.875,3.124,3.124,0,0,0,2.034,5.642h0Zm17.561,2.362a1.221,1.221,0,0,1-.831-.219,1.782,1.782,0,0,1-.459-.853l-5.139-16.9a3.831,3.831,0,0,1-.2-.875.48.48,0,0,1,.525-.547H74.8a1.212,1.212,0,0,1,.853.219,1.789,1.789,0,0,1,.437.853l3.674,14.477,3.412-14.477a1.534,1.534,0,0,1,.416-.853,1.5,1.5,0,0,1,.875-.219h1.75a1.316,1.316,0,0,1,.875.219,1.474,1.474,0,0,1,.416.853L90.963,295l3.783-14.652a1.875,1.875,0,0,1,.437-.853,1.427,1.427,0,0,1,.853-.219h2.034a.486.486,0,0,1,.547.547,2.182,2.182,0,0,1-.044.35,3.111,3.111,0,0,1-.153.547l-5.27,16.9a1.677,1.677,0,0,1-.459.853,1.4,1.4,0,0,1-.831.219H89.979a1.316,1.316,0,0,1-.875-.219,1.55,1.55,0,0,1-.416-.875L85.3,283.5l-3.368,14.084a1.707,1.707,0,0,1-.416.875,1.355,1.355,0,0,1-.875.219H78.76Zm28.1.59a14.471,14.471,0,0,1-3.368-.394,9.946,9.946,0,0,1-2.515-.875,1.576,1.576,0,0,1-.678-.612,1.544,1.544,0,0,1-.131-.612V295.66c0-.459.175-.678.5-.678a1.239,1.239,0,0,1,.394.066c.131.044.328.131.547.219a11.894,11.894,0,0,0,2.406.765,13.131,13.131,0,0,0,2.6.262,5.9,5.9,0,0,0,3.193-.722,2.355,2.355,0,0,0,1.137-2.078,2.13,2.13,0,0,0-.59-1.531,5.487,5.487,0,0,0-2.209-1.137l-3.171-.984a6.67,6.67,0,0,1-3.5-2.231,5.21,5.21,0,0,1-1.093-3.171,4.867,4.867,0,0,1,.59-2.427,5.623,5.623,0,0,1,1.575-1.793,6.94,6.94,0,0,1,2.274-1.137,9.531,9.531,0,0,1,2.756-.372,10.978,10.978,0,0,1,1.465.087c.5.066.962.153,1.421.241.437.109.853.219,1.247.35a4.773,4.773,0,0,1,.919.394,1.891,1.891,0,0,1,.656.547,1.179,1.179,0,0,1,.2.722v1.028c0,.459-.175.7-.5.7a2.275,2.275,0,0,1-.831-.262,10,10,0,0,0-4.2-.853,5.644,5.644,0,0,0-2.909.612,2.112,2.112,0,0,0-1.028,1.946,2.065,2.065,0,0,0,.656,1.553,6.533,6.533,0,0,0,2.406,1.2l3.105.984a6.651,6.651,0,0,1,3.39,2.1,4.949,4.949,0,0,1,1.006,3.062,5.622,5.622,0,0,1-.569,2.537,5.882,5.882,0,0,1-1.6,1.924,7.05,7.05,0,0,1-2.427,1.225,10.4,10.4,0,0,1-3.127.459Z" transform="translate(-51.548 -278.712)" fill="#252f3e"/>
          <g id="Group_63" data-name="Group 63" transform="translate(0 24.514)">
            <path id="Path_138" data-name="Path 138" d="M108.5,333.556c-7.195,5.314-17.648,8.135-26.636,8.135a48.189,48.189,0,0,1-32.519-12.4c-.678-.612-.066-1.443.744-.962a64.586,64.586,0,0,0,57.363,3.565c1.2-.547,2.231.787,1.05,1.662h0Z" transform="translate(-49.057 -326.884)" fill="#f90" fill-rule="evenodd"/>
            <path id="Path_139" data-name="Path 139" d="M160.468,328.952c-.919-1.181-6.08-.569-8.42-.284-.7.087-.809-.525-.175-.984,4.111-2.887,10.869-2.056,11.656-1.093.787.984-.219,7.742-4.068,10.978-.59.5-1.159.241-.9-.415.875-2.165,2.821-7.042,1.9-8.2Z" transform="translate(-98.025 -325.692)" fill="#f90" fill-rule="evenodd"/>
          </g>
        </g>
      </g>
      <path id="Path_140" data-name="Path 140" d="M410.883,269.492c-.522-.522-4.7-11.479-4.7-11.479l-9.914-.522-4.536,10.695,19.146,1.307Z" transform="translate(-187.333 -123.135)" fill="#ffb6b6"/>
      <circle id="Ellipse_14" data-name="Ellipse 14" cx="13.345" cy="13.345" r="13.345" transform="translate(196.14 112.714)" fill="#ffb6b6"/>
      <path id="Path_141" data-name="Path 141" d="M409.043,418.513l4.7,15.654-12.523,90.791h-8.478L388.171,456.6l-5.218,23.481L409.565,514l-6.783,7.827L364.43,484.519l.783-57.658,3.131-8.87Z" transform="translate(-174.274 -199.888)" fill="#2f2e41"/>
      <path id="Path_142" data-name="Path 142" d="M398.987,236.523l-1.042.051s-.932-8.313-1.479-8.808-1.538.6-1.538.6-4.3-2.4-4.426-5.006-.231-4.69-1.795-4.613-10.32,2.6-12.405,2.7-5.391-3.391-1.9-6.7,6.57-4.5,7.065-5.05,3.758-2.8,6.608-.848a11.869,11.869,0,0,0,6.5,1.77s6.852,1.23,5.964,4.408,2.547,9.278,1.137,12.482a62.822,62.822,0,0,0-2.69,9.014Z" transform="translate(-178.314 -99.501)" fill="#2f2e41"/>
      <path id="Path_143" data-name="Path 143" d="M412.82,619.991l9.392,1.044,1.044,17.219s-.522,8.349-9.392,7.305-6.261-9.392-6.261-9.392Z" transform="translate(-194.749 -296.486)" fill="#2f2e41"/>
      <path id="Path_144" data-name="Path 144" d="M435.765,595.346s6.783-3.131,7.827.522l2.087,7.3s0,7.305.522,7.827,10.436,14.088,1.565,21.393c0,0-4.7.522-7.305-6.783S430.025,611,430.025,611s-1.516-3.652,1.068-3.392,6.237-6,5.193-8.088A6.624,6.624,0,0,1,435.765,595.346Z" transform="translate(-205.431 -284.104)" fill="#2f2e41"/>
      <path id="Path_145" data-name="Path 145" d="M274.164,419.444c-2.428-1.023-3.093-4.943-1.486-8.759a10.358,10.358,0,0,1,2.856-3.972l1.875-4.3-.067-.045,5.392-21.489a16.505,16.505,0,0,1,9.446-11.228c2.82-1.2,5.5-1.416,6.274,1.457,1.291,4.768-7.118,20.126-12.189,28.768l-3.95,9.693a10.359,10.359,0,0,1-.846,4.82c-1.606,3.815-4.876,6.078-7.3,5.056h0Z" transform="translate(-129.979 -176.371)" fill="#ffb6b6"/>
      <path id="Path_146" data-name="Path 146" d="M378.562,274.491l17.219.522,16.7,7.305-2.609,43.309s3.131,9.914,1.565,11.479,0,8.583-1.044,8.727,0,7.691,0,7.691-14.61-4.938-27.133-1.808-16.7-2.087-16.7-2.087-3.131-12.523-3.131-15.132v-53.35l15.132-6.656Z" transform="translate(-173.796 -131.265)" fill="#0b87d1"/>
      <path id="Path_147" data-name="Path 147" d="M330.434,286.613s-7.305-2.087-10.958,3.131-5.74,5.218-5.74,12c0,0-21.393,30.264-20.35,33.395l-4.957,8.088,12.523,6.783s4.435-4.435,4.435-8.61,12.523-15.654,12.523-15.654,10.958-14.088,11.479-19.306S330.434,286.613,330.434,286.613Z" transform="translate(-137.93 -136.864)" fill="#0b87d1"/>
      <g id="Group_68" data-name="Group 68" transform="translate(233.762 244.69)">
        <g id="Group_66" data-name="Group 66">
          <path id="Path_148" data-name="Path 148" d="M472.035,470.944h71.834A22.035,22.035,0,0,1,565.9,492.979V550.6a22.035,22.035,0,0,1-22.035,22.035H472.035A22.035,22.035,0,0,1,450,550.6V492.979a22.035,22.035,0,0,1,22.035-22.035Z" transform="translate(-448.957 -469.9)" fill="#fff"/>
          <path id="Path_149" data-name="Path 149" d="M448,549.124V491.5a22.583,22.583,0,0,1,22.557-22.557h71.834A22.583,22.583,0,0,1,564.948,491.5v57.623a22.583,22.583,0,0,1-22.557,22.557H470.557A22.582,22.582,0,0,1,448,549.124Zm22.557-79.136A21.538,21.538,0,0,0,449.044,491.5v57.623a21.537,21.537,0,0,0,21.513,21.513h71.834A21.537,21.537,0,0,0,563.9,549.124V491.5a21.538,21.538,0,0,0-21.513-21.513Z" transform="translate(-448 -468.944)" fill="#3f3d56"/>
        </g>
        <g id="Group_67" data-name="Group 67" transform="translate(31.261 28.452)">
          <path id="Path_150" data-name="Path 150" d="M551.214,536.352h1.773l5.052-5.052.248-2.145a22.707,22.707,0,0,0-36.941,11.079,2.748,2.748,0,0,1,1.773-.106l10.1-1.666s.514-.851.78-.8a12.6,12.6,0,0,1,17.247-1.312h-.035Z" transform="translate(-514.336 -523.472)" fill="#ea4335"/>
          <path id="Path_151" data-name="Path 151" d="M584.194,545.459a22.762,22.762,0,0,0-6.86-11.061l-7.09,7.09a12.6,12.6,0,0,1,4.626,10v1.258a6.31,6.31,0,1,1,0,12.621H562.25l-1.259,1.276v7.569l1.259,1.259h12.621a16.414,16.414,0,0,0,9.324-30.01h0Z" transform="translate(-533.295 -528.697)" fill="#4285f4"/>
          <path id="Path_152" data-name="Path 152" d="M530.1,603.194h12.621v-10.1H530.1a6.273,6.273,0,0,1-2.606-.567l-1.773.549-5.087,5.052-.443,1.773a16.326,16.326,0,0,0,9.909,3.3Z" transform="translate(-513.783 -556.493)" fill="#34a853"/>
          <path id="Path_153" data-name="Path 153" d="M524.227,550.16a16.414,16.414,0,0,0-9.909,29.425l7.321-7.321a6.31,6.31,0,1,1,8.349-8.349l7.321-7.321a16.4,16.4,0,0,0-13.082-6.435h0Z" transform="translate(-507.911 -536.234)" fill="#fbbc05"/>
        </g>
      </g>
      <g id="Group_69" data-name="Group 69" transform="translate(229.444 150.696)">
        <path id="Path_154" data-name="Path 154" d="M470.481,437.977c2.631-.138,4.587-3.6,4.37-7.735a10.359,10.359,0,0,0-1.338-4.706l-.3-4.682.078-.02,2.221-22.043a16.5,16.5,0,0,0-5.075-13.767c-2.246-2.085-4.689-3.2-6.4-.758-2.833,4.047-.135,21.348,1.7,31.2l.426,10.459a10.359,10.359,0,0,0-.84,4.821c.216,4.133,2.524,7.372,5.155,7.235Z" transform="translate(-450.763 -333.793)" fill="#ffb6b6"/>
        <path id="Path_155" data-name="Path 155" d="M445.665,288.807s7.58.516,9.245,6.664,3.628,6.856,1.326,13.237c0,0,9.852,35.728,7.808,38.319l1.918,9.29-14.082,2.13s-2.667-5.677-1.25-9.6-6.467-18.975-6.467-18.975-5.526-16.971-4.246-22.056,5.748-19.005,5.748-19.005h0Z" transform="translate(-439.725 -288.807)" fill="#0b87d1"/>
      </g>
    </g>
    <g id="Group_44" data-name="Group 44" transform="translate(860.71 2109.752)">
      <rect id="Rectangle_11" data-name="Rectangle 11" width="10.564" height="11.62" rx="3" transform="translate(0 0)" fill="url(#linear-gradient-4)"/>
      <rect id="Rectangle_11-2" data-name="Rectangle 11" width="11.62" height="11.62" rx="3" transform="translate(16.902 0)" fill="url(#linear-gradient-4)"/>
      <rect id="Rectangle_11-3" data-name="Rectangle 11" width="11.62" height="11.62" rx="3" transform="translate(33.805 0)" fill="url(#linear-gradient-4)"/>
      <rect id="Rectangle_11-4" data-name="Rectangle 11" width="10.564" height="12.677" rx="3" transform="translate(0 15.846)" fill="url(#linear-gradient-4)"/>
      <rect id="Rectangle_11-5" data-name="Rectangle 11" width="11.62" height="12.677" rx="3" transform="translate(16.902 15.846)" fill="url(#linear-gradient-4)"/>
      <rect id="Rectangle_11-6" data-name="Rectangle 11" width="11.62" height="12.677" rx="3" transform="translate(33.805 15.846)" fill="url(#linear-gradient-4)"/>
      <rect id="Rectangle_11-7" data-name="Rectangle 11" width="10.564" height="10.564" rx="3" transform="translate(0 33.805)" fill="url(#linear-gradient-4)"/>
      <rect id="Rectangle_11-8" data-name="Rectangle 11" width="11.62" height="10.564" rx="3" transform="translate(16.902 33.805)" fill="url(#linear-gradient-4)"/>
      <rect id="Rectangle_11-9" data-name="Rectangle 11" width="11.62" height="10.564" rx="3" transform="translate(33.805 33.805)" fill="url(#linear-gradient-4)"/>
    </g>
  </g>
</svg>
