<svg xmlns="http://www.w3.org/2000/svg" xmlns:xlink="http://www.w3.org/1999/xlink" width="413" height="410" viewBox="0 0 413 410">
  <defs>
    <linearGradient id="linear-gradient" x1="0.5" x2="0.5" y2="1" gradientUnits="objectBoundingBox">
      <stop offset="0" stop-color="#00aeef"/>
      <stop offset="1" stop-color="#21409a"/>
    </linearGradient>
  </defs>
  <g id="Group_25" data-name="Group 25" transform="translate(-783 -159)">
    <g id="Group_18" data-name="Group 18" transform="translate(783 219.627)">
      <g id="Group_8" data-name="Group 8" transform="translate(240.884 249.241)">
        <path id="Path_14" data-name="Path 14" d="M431.994,472.784h7.52l3.578-29.006h-11.1Z" transform="translate(-430.254 -443.778)" fill="#a0616a"/>
        <path id="Path_15" data-name="Path 15" d="M456.4,488.5h0a6.457,6.457,0,0,1,.358,2.126h0a2.552,2.552,0,0,1-2.552,2.552H430.918a1.741,1.741,0,0,1-1.741-1.741v-.97s-1.152-2.914,1.22-6.506c0,0,2.948,2.812,7.353-1.593l1.3-2.353,9.4,6.877,5.212.642c1.14.14,2.151-.022,2.738.966h0Z" transform="translate(-428.897 -459.663)" fill="#2f2e41"/>
      </g>
      <g id="Group_9" data-name="Group 9" transform="translate(263.172 243.207)">
        <path id="Path_16" data-name="Path 16" d="M472.831,460.423l7.1,2.475,12.927-26.211-10.48-3.653Z" transform="translate(-470.444 -433.034)" fill="#a0616a"/>
        <path id="Path_17" data-name="Path 17" d="M495.352,485.905h0a6.457,6.457,0,0,1-.362,2.125h0a2.552,2.552,0,0,1-3.25,1.57l-21.99-7.667a1.741,1.741,0,0,1-1.071-2.217L469,478.8s-.128-3.131,3.294-5.741c0,0,1.858,3.626,7.467.917l2-1.794,6.615,9.589,4.71,2.322c1.03.508,2.038.688,2.267,1.814h0Z" transform="translate(-468.582 -450.195)" fill="#2f2e41"/>
      </g>
      <path id="Path_18" data-name="Path 18" d="M31.532,173.493H2.327a2.247,2.247,0,1,1,0-4.493H31.532a2.247,2.247,0,1,1,0,4.493Z" transform="translate(-0.035 -74.084)" fill="#e6e6e6"/>
      <rect id="Rectangle_8" data-name="Rectangle 8" width="109.564" height="0.562" transform="translate(0 77.826)" fill="#e6e6e6"/>
      <path id="Path_19" data-name="Path 19" d="M110.533,243.493H81.328a2.247,2.247,0,1,1,0-4.493h29.205a2.247,2.247,0,1,1,0,4.493Z" transform="translate(-34.666 -104.769)" fill="#e6e6e6"/>
      <rect id="Rectangle_9" data-name="Rectangle 9" width="109.564" height="0.562" transform="translate(44.369 117.141)" fill="#e6e6e6"/>
      <path id="Path_20" data-name="Path 20" d="M37.532,335.493H8.327a2.247,2.247,0,1,1,0-4.493H37.532a2.247,2.247,0,1,1,0,4.493Z" transform="translate(-2.666 -145.099)" fill="#e6e6e6"/>
      <rect id="Rectangle_10" data-name="Rectangle 10" width="109.564" height="0.562" transform="translate(3.37 168.811)" fill="#e6e6e6"/>
      <g id="Group_10" data-name="Group 10" transform="translate(90.263 144.942)">
        <path id="Path_21" data-name="Path 21" d="M175.228,284.454l-4.622-2.19a33.946,33.946,0,0,1,4.4,10.066,33.917,33.917,0,0,1,6.231-9.049l-4.885,1.257c3.01-14.753,14.332-25.344,27.3-25.344v-1.123c-13.543,0-25.352,11.035-28.425,26.383Z" transform="translate(-165.051 -258.071)" fill="#3f3d56"/>
        <path id="Path_22" data-name="Path 22" d="M192.167,341.564H162.962a2.247,2.247,0,1,1,0-4.493h29.205a2.247,2.247,0,0,1,0,4.493Z" transform="translate(-160.715 -292.702)" fill="#0b87d1"/>
      </g>
      <g id="Group_11" data-name="Group 11" transform="translate(300.98 124.777)">
        <path id="Path_23" data-name="Path 23" d="M550.413,248.551l-4.622-2.19a33.945,33.945,0,0,1,4.4,10.066,33.919,33.919,0,0,1,6.231-9.049l-4.885,1.257c3.01-14.753,14.333-25.344,27.3-25.344v-1.123c-13.543,0-25.352,11.035-28.425,26.383Z" transform="translate(-540.236 -222.168)" fill="#3f3d56"/>
        <path id="Path_24" data-name="Path 24" d="M567.352,305.661H538.147a2.247,2.247,0,0,1,0-4.493h29.205a2.247,2.247,0,0,1,0,4.493Z" transform="translate(-535.9 -256.799)" fill="#0b87d1"/>
      </g>
      <path id="Path_25" data-name="Path 25" d="M457.884,193,407.9,200.3l12.356,149.956,14.041-.562,4.493-102.217,18.534,45.492-11.233,56.163,14.041-.548,16.849-56.177-11.233-64.026Z" transform="translate(-178.808 -84.604)" fill="#2f2e41"/>
      <path id="Path_26" data-name="Path 26" d="M445.176,62H426.983l-14.762,81.973s8.789,12.054,26.207.7,25.463-1.828,25.463-1.828L445.176,62h0Z" transform="translate(-180.703 -27.179)" fill="#0b87d1"/>
      <path id="Path_27" data-name="Path 27" d="M413.066,204.068l17.229-31.426,1.123-92.108L423.334,62,418.5,69.863l-14.6,9.044,2.83,39.825-1,25.868-.521,13.414c-1.82,8.039,1.416,40.918,7.863,46.054Z" transform="translate(-177.055 -27.179)" fill="#2f2e41"/>
      <path id="Path_28" data-name="Path 28" d="M467.009,65.653l17.758,15.078,10.39,89.019.182-.025c.953,3.738,1.021,26.544-1.125,29.75L468.48,173.4,460.9,81.574l6.112-15.921Z" transform="translate(-202.041 -28.78)" fill="#2f2e41"/>
      <g id="Group_12" data-name="Group 12" transform="translate(268.099 39.237)">
        <path id="Path_29" data-name="Path 29" d="M565.17,213.81c1.692,3.275,1.374,6.8-.71,7.879s-5.145-.705-6.836-3.98a9.226,9.226,0,0,1-1.087-4.219l-6.994-13.966,6.624-3.143,6.192,14.1a9.226,9.226,0,0,1,2.812,3.328h0Z" transform="translate(-509 -125.323)" fill="#a0616a"/>
        <path id="Path_30" data-name="Path 30" d="M477.355,69.861S490.519,80.49,494.581,84.2c2.158,1.969,16.633,32.354,16.633,32.354l20.1,35.013-10.45,3.97-21.378-32.284-18.461-21.3-3.674-32.091h0Z" transform="translate(-477.355 -69.861)" fill="#2f2e41"/>
      </g>
      <g id="Group_13" data-name="Group 13" transform="translate(185.055 41.843)">
        <path id="Path_31" data-name="Path 31" d="M330.58,219.81c-1.692,3.275-1.374,6.8.71,7.879s5.145-.705,6.836-3.98a9.226,9.226,0,0,0,1.087-4.219l6.994-13.966-6.624-3.143-6.192,14.1a9.225,9.225,0,0,0-2.812,3.328Z" transform="translate(-329.493 -130.56)" fill="#a0616a"/>
        <path id="Path_32" data-name="Path 32" d="M388.956,74.5s-12.8,6.9-16.862,10.6c-2.158,1.969-16.633,36.847-16.633,36.847l-20.1,35.013,10.45,3.97,21.378-32.284,14.53-17.927L388.956,74.5h0Z" transform="translate(-332.063 -74.503)" fill="#2f2e41"/>
      </g>
      <circle id="Ellipse_1" data-name="Ellipse 1" cx="14.667" cy="14.667" r="14.667" transform="translate(241.112 2.458)" fill="#a0616a"/>
      <path id="Path_33" data-name="Path 33" d="M448.788,0s1.049,4.2-3.672.525c-1.721-1.339-3.923.817-5.77,1.049-3.218.405-5.77.1-5.77,2.1,0,1.278-1.7-.667-2.623-.525-1.352.208-2.1,2.1-2.1,2.1-2.048,1.3-3.672,4.2-.525,5.246-3.147,3.672-.23,5.543-.23,5.543l2.853-3.445c1.478.806,3.484,2.889,4.22,1.72,2.075-3.294,8.181.14,10.711-1.243,2.548-1.393,3.954,4.244,3.954,4.244l1.167.607s-.643-1.132,2.5-2.181c1.574-.525,1.967,1.049,1.967,2.754a11.228,11.228,0,0,1-1.5,5.5L451,29.262l1.306-.833a13.68,13.68,0,0,0,5.517-7.655,1.471,1.471,0,0,1,.189-.4l-.311-2.537,1.027,1.205a1.51,1.51,0,0,0,.022-1.205c-1.891-3.558,1.049-5.77-2.1-10.491C451.992.347,448.788,0,448.788,0h0Z" transform="translate(-186.991)" fill="#2f2e41"/>
      <path id="Path_34" data-name="Path 34" d="M289.56,502.831a.666.666,0,0,0,.668.668H494.265a.668.668,0,1,0,0-1.337H290.228a.666.666,0,0,0-.668.668Z" transform="translate(-126.933 -220.131)" fill="#ccc"/>
      <g id="Group_14" data-name="Group 14" transform="translate(117.043 112.046)">
        <path id="Path_35" data-name="Path 35" d="M230.123,227.582H212.508a4.115,4.115,0,0,1-4.111-4.111V203.611a4.115,4.115,0,0,1,4.111-4.111h17.614a4.115,4.115,0,0,1,4.111,4.111v19.861A4.115,4.115,0,0,1,230.123,227.582Z" transform="translate(-208.398 -199.5)" fill="#fff"/>
        <path id="Path_36" data-name="Path 36" d="M230.123,227.582H212.508a4.115,4.115,0,0,1-4.111-4.111V203.611a4.115,4.115,0,0,1,4.111-4.111h17.614a4.115,4.115,0,0,1,4.111,4.111c1.974,6.249,1.774,12.907,0,19.861A4.115,4.115,0,0,1,230.123,227.582Zm-17.614-27.52a3.553,3.553,0,0,0-3.549,3.549v19.861a3.553,3.553,0,0,0,3.549,3.549h17.614a3.553,3.553,0,0,0,3.549-3.549V203.611a3.553,3.553,0,0,0-3.549-3.549Z" transform="translate(-208.398 -199.5)" fill="#3f3d56"/>
        <path id="Path_37" data-name="Path 37" d="M231.711,219.257H217.2a1.116,1.116,0,1,1,0-2.233h14.513a1.116,1.116,0,1,1,0,2.233Z" transform="translate(-211.766 -207.182)" fill="#0b87d1"/>
        <path id="Path_38" data-name="Path 38" d="M231.711,230.257H217.2a1.116,1.116,0,1,1,0-2.233h14.513a1.116,1.116,0,1,1,0,2.233Z" transform="translate(-211.766 -212.004)" fill="#0b87d1"/>
      </g>
      <g id="Group_15" data-name="Group 15" transform="translate(5.203 58.799)">
        <path id="Path_39" data-name="Path 39" d="M32.339,132.775H14.725a4.115,4.115,0,0,1-4.111-4.111V108.8a4.115,4.115,0,0,1,4.111-4.111H32.339a4.115,4.115,0,0,1,4.111,4.111v19.861a4.115,4.115,0,0,1-4.111,4.111Z" transform="translate(-9.856 -104.693)" fill="#fff"/>
        <path id="Path_40" data-name="Path 40" d="M31.747,132.775H14.133a4.115,4.115,0,0,1-4.111-4.111c-.886-7.313-1.13-14.124,0-19.861a4.115,4.115,0,0,1,4.111-4.111H31.747a4.115,4.115,0,0,1,4.111,4.111v19.861a4.115,4.115,0,0,1-4.111,4.111Zm-17.614-27.52a3.553,3.553,0,0,0-3.549,3.549v19.861a3.553,3.553,0,0,0,3.549,3.549H31.747a3.553,3.553,0,0,0,3.549-3.549V108.8a3.553,3.553,0,0,0-3.549-3.549Z" transform="translate(-9.264 -104.693)" fill="#3f3d56"/>
        <path id="Path_41" data-name="Path 41" d="M33.927,124.45H19.414a1.116,1.116,0,1,1,0-2.233H33.927a1.116,1.116,0,1,1,0,2.233Z" transform="translate(-13.224 -112.375)" fill="#0b87d1"/>
        <path id="Path_42" data-name="Path 42" d="M33.927,135.45H19.414a1.116,1.116,0,0,1,0-2.233H33.927a1.116,1.116,0,0,1,0,2.233Z" transform="translate(-13.224 -117.197)" fill="#0b87d1"/>
        <path id="Path_43" data-name="Path 43" d="M33.927,113.45H19.414a1.116,1.116,0,1,1,0-2.233H33.927a1.116,1.116,0,1,1,0,2.233Z" transform="translate(-13.224 -107.553)" fill="#0b87d1"/>
      </g>
      <g id="Group_16" data-name="Group 16" transform="translate(182.437 105.444)">
        <path id="Path_44" data-name="Path 44" d="M358.032,209.766l-13.163,11.7a4.115,4.115,0,0,1-5.8-.34,53,53,0,0,1-13.2-14.842,4.115,4.115,0,0,1,.34-5.8l13.163-11.7a4.115,4.115,0,0,1,5.8.34l13.2,14.842a4.115,4.115,0,0,1-.34,5.8h0Z" transform="translate(-324.831 -187.744)" fill="#fff"/>
        <path id="Path_45" data-name="Path 45" d="M358.032,209.766l-13.163,11.7a4.115,4.115,0,0,1-5.8-.34c-6.242-3.822-10.918-8.6-13.2-14.842a4.115,4.115,0,0,1,.34-5.8l13.163-11.7a4.115,4.115,0,0,1,5.8.34l13.2,14.842a4.115,4.115,0,0,1-.34,5.8h0Zm-31.45-8.861a3.553,3.553,0,0,0-.294,5.01,39.448,39.448,0,0,0,13.2,14.842,3.553,3.553,0,0,0,5.01.294l13.163-11.7a3.553,3.553,0,0,0,.294-5.01l-13.2-14.842a3.553,3.553,0,0,0-5.01-.294l-13.163,11.7Z" transform="translate(-324.831 -187.744)" fill="#3f3d56"/>
        <path id="Path_46" data-name="Path 46" d="M352.724,206.241l-10.846,9.644a1.116,1.116,0,1,1-1.484-1.669l10.846-9.644a1.116,1.116,0,1,1,1.484,1.669Z" transform="translate(-331.49 -194.998)" fill="#0b87d1"/>
        <path id="Path_47" data-name="Path 47" d="M360.033,214.461,349.187,224.1a1.116,1.116,0,0,1-1.484-1.669l10.846-9.644a1.116,1.116,0,0,1,1.484,1.669h0Z" transform="translate(-334.694 -198.601)" fill="#0b87d1"/>
        <path id="Path_48" data-name="Path 48" d="M345.414,198.021l-10.846,9.644A1.116,1.116,0,0,1,333.084,206l10.846-9.644a1.116,1.116,0,1,1,1.484,1.669Z" transform="translate(-328.285 -191.394)" fill="#0b87d1"/>
      </g>
      <g id="Group_17" data-name="Group 17" transform="translate(41.344 157.085)">
        <path id="Path_49" data-name="Path 49" d="M97.339,307.775H79.724a4.115,4.115,0,0,1-4.111-4.111V283.8a4.115,4.115,0,0,1,4.111-4.111H97.339a4.115,4.115,0,0,1,4.111,4.111v19.861A4.115,4.115,0,0,1,97.339,307.775Z" transform="translate(-74.491 -279.693)" fill="#fff"/>
        <path id="Path_50" data-name="Path 50" d="M96.462,307.775H78.848a4.115,4.115,0,0,1-4.111-4.111,44.479,44.479,0,0,1,0-19.861,4.115,4.115,0,0,1,4.111-4.111H96.462a4.115,4.115,0,0,1,4.111,4.111v19.861A4.115,4.115,0,0,1,96.462,307.775Zm-17.614-27.52A3.553,3.553,0,0,0,75.3,283.8v19.861a3.553,3.553,0,0,0,3.549,3.549H96.462a3.553,3.553,0,0,0,3.549-3.549V283.8a3.553,3.553,0,0,0-3.549-3.549Z" transform="translate(-73.614 -279.693)" fill="#3f3d56"/>
        <path id="Path_51" data-name="Path 51" d="M98.927,299.45H84.413a1.116,1.116,0,0,1,0-2.233H98.927a1.116,1.116,0,0,1,0,2.233Z" transform="translate(-77.859 -287.375)" fill="#0b87d1"/>
      </g>
    </g>
    <g id="Group_20" data-name="Group 20" transform="translate(137 715)">
      <rect id="Rectangle_11" data-name="Rectangle 11" width="11" height="11" rx="3" transform="translate(797 -234)" fill="url(#linear-gradient)"/>
      <rect id="Rectangle_11-2" data-name="Rectangle 11" width="11" height="11" rx="3" transform="translate(814 -234)" fill="url(#linear-gradient)"/>
      <rect id="Rectangle_11-3" data-name="Rectangle 11" width="11" height="11" rx="3" transform="translate(831 -234)" fill="url(#linear-gradient)"/>
      <rect id="Rectangle_11-4" data-name="Rectangle 11" width="11" height="12" rx="3" transform="translate(797 -218)" fill="url(#linear-gradient)"/>
      <rect id="Rectangle_11-5" data-name="Rectangle 11" width="11" height="12" rx="3" transform="translate(814 -218)" fill="url(#linear-gradient)"/>
      <rect id="Rectangle_11-6" data-name="Rectangle 11" width="11" height="12" rx="3" transform="translate(831 -218)" fill="url(#linear-gradient)"/>
      <rect id="Rectangle_11-7" data-name="Rectangle 11" width="11" height="11" rx="3" transform="translate(797 -201)" fill="url(#linear-gradient)"/>
      <rect id="Rectangle_11-8" data-name="Rectangle 11" width="11" height="11" rx="3" transform="translate(814 -201)" fill="url(#linear-gradient)"/>
      <rect id="Rectangle_11-9" data-name="Rectangle 11" width="11" height="11" rx="3" transform="translate(831 -201)" fill="url(#linear-gradient)"/>
    </g>
    <g id="Group_22" data-name="Group 22" transform="translate(332 454)">
      <rect id="Rectangle_11-10" data-name="Rectangle 11" width="11" height="11" rx="3" transform="translate(797 -234)" fill="url(#linear-gradient)"/>
      <rect id="Rectangle_11-11" data-name="Rectangle 11" width="11" height="11" rx="3" transform="translate(814 -234)" fill="url(#linear-gradient)"/>
      <rect id="Rectangle_11-12" data-name="Rectangle 11" width="11" height="11" rx="3" transform="translate(831 -234)" fill="url(#linear-gradient)"/>
      <rect id="Rectangle_11-13" data-name="Rectangle 11" width="11" height="12" rx="3" transform="translate(797 -218)" fill="url(#linear-gradient)"/>
      <rect id="Rectangle_11-14" data-name="Rectangle 11" width="11" height="12" rx="3" transform="translate(814 -218)" fill="url(#linear-gradient)"/>
      <rect id="Rectangle_11-15" data-name="Rectangle 11" width="11" height="12" rx="3" transform="translate(831 -218)" fill="url(#linear-gradient)"/>
      <rect id="Rectangle_11-16" data-name="Rectangle 11" width="11" height="11" rx="3" transform="translate(797 -201)" fill="url(#linear-gradient)"/>
      <rect id="Rectangle_11-17" data-name="Rectangle 11" width="11" height="11" rx="3" transform="translate(814 -201)" fill="url(#linear-gradient)"/>
      <rect id="Rectangle_11-18" data-name="Rectangle 11" width="11" height="11" rx="3" transform="translate(831 -201)" fill="url(#linear-gradient)"/>
    </g>
    <g id="Group_23" data-name="Group 23" transform="translate(125 393)" opacity="0.19">
      <rect id="Rectangle_11-19" data-name="Rectangle 11" width="11" height="11" rx="3" transform="translate(797 -234)" fill="url(#linear-gradient)"/>
      <rect id="Rectangle_11-20" data-name="Rectangle 11" width="11" height="11" rx="3" transform="translate(814 -234)" fill="url(#linear-gradient)"/>
      <rect id="Rectangle_11-21" data-name="Rectangle 11" width="11" height="11" rx="3" transform="translate(831 -234)" fill="url(#linear-gradient)"/>
      <rect id="Rectangle_11-22" data-name="Rectangle 11" width="11" height="12" rx="3" transform="translate(797 -218)" fill="url(#linear-gradient)"/>
      <rect id="Rectangle_11-23" data-name="Rectangle 11" width="11" height="12" rx="3" transform="translate(814 -218)" fill="url(#linear-gradient)"/>
      <rect id="Rectangle_11-24" data-name="Rectangle 11" width="11" height="12" rx="3" transform="translate(831 -218)" fill="url(#linear-gradient)"/>
      <rect id="Rectangle_11-25" data-name="Rectangle 11" width="11" height="11" rx="3" transform="translate(797 -201)" fill="url(#linear-gradient)"/>
      <rect id="Rectangle_11-26" data-name="Rectangle 11" width="11" height="11" rx="3" transform="translate(814 -201)" fill="url(#linear-gradient)"/>
      <rect id="Rectangle_11-27" data-name="Rectangle 11" width="11" height="11" rx="3" transform="translate(831 -201)" fill="url(#linear-gradient)"/>
    </g>
    <g id="Group_24" data-name="Group 24" transform="translate(354 759)" opacity="0.19">
      <rect id="Rectangle_11-28" data-name="Rectangle 11" width="11" height="11" rx="3" transform="translate(797 -234)" fill="url(#linear-gradient)"/>
      <rect id="Rectangle_11-29" data-name="Rectangle 11" width="11" height="11" rx="3" transform="translate(814 -234)" fill="url(#linear-gradient)"/>
      <rect id="Rectangle_11-30" data-name="Rectangle 11" width="11" height="11" rx="3" transform="translate(831 -234)" fill="url(#linear-gradient)"/>
      <rect id="Rectangle_11-31" data-name="Rectangle 11" width="11" height="12" rx="3" transform="translate(797 -218)" fill="url(#linear-gradient)"/>
      <rect id="Rectangle_11-32" data-name="Rectangle 11" width="11" height="12" rx="3" transform="translate(814 -218)" fill="url(#linear-gradient)"/>
      <rect id="Rectangle_11-33" data-name="Rectangle 11" width="11" height="12" rx="3" transform="translate(831 -218)" fill="url(#linear-gradient)"/>
      <rect id="Rectangle_11-34" data-name="Rectangle 11" width="11" height="11" rx="3" transform="translate(797 -201)" fill="url(#linear-gradient)"/>
      <rect id="Rectangle_11-35" data-name="Rectangle 11" width="11" height="11" rx="3" transform="translate(814 -201)" fill="url(#linear-gradient)"/>
      <rect id="Rectangle_11-36" data-name="Rectangle 11" width="11" height="11" rx="3" transform="translate(831 -201)" fill="url(#linear-gradient)"/>
    </g>
  </g>
</svg>
