<svg xmlns="http://www.w3.org/2000/svg" xmlns:xlink="http://www.w3.org/1999/xlink" width="33.594" height="33.624" viewBox="0 0 33.594 33.624">
  <defs>
    <linearGradient id="linear-gradient" x1="0.5" y1="-0.116" x2="0.5" y2="1.508" gradientUnits="objectBoundingBox">
      <stop offset="0.08" stop-color="#27aae1" stop-opacity="0.8"/>
      <stop offset="0.84" stop-color="#1c75bc"/>
    </linearGradient>
    <linearGradient id="linear-gradient-2" x1="-0.034" y1="0.606" x2="0.949" y2="0.468" gradientUnits="objectBoundingBox">
      <stop offset="0" stop-color="#2b8bc9"/>
      <stop offset="1" stop-color="#27aae1"/>
    </linearGradient>
    <linearGradient id="linear-gradient-3" x1="0.515" y1="0.21" x2="0.461" y2="0.708" gradientUnits="objectBoundingBox">
      <stop offset="0" stop-color="#d1d3d4"/>
      <stop offset="1" stop-color="#939598"/>
    </linearGradient>
    <linearGradient id="linear-gradient-4" x1="0.498" y1="0.999" x2="0.503" gradientUnits="objectBoundingBox">
      <stop offset="0" stop-color="#808285"/>
      <stop offset="1" stop-color="#d1d3d4"/>
    </linearGradient>
    <linearGradient id="linear-gradient-5" x1="0.239" y1="-0.013" x2="0.666" y2="1.052" xlink:href="#linear-gradient-3"/>
    <linearGradient id="linear-gradient-6" y1="0.5" x2="1" y2="0.5" gradientUnits="objectBoundingBox">
      <stop offset="0" stop-color="#1c75bc"/>
      <stop offset="1" stop-color="#00aeef"/>
    </linearGradient>
    <linearGradient id="linear-gradient-7" x1="0.497" y1="1.023" x2="0.502" y2="0.088" xlink:href="#linear-gradient-4"/>
    <linearGradient id="linear-gradient-8" x1="0" y1="0.5" x2="1" y2="0.5" xlink:href="#linear-gradient-3"/>
    <linearGradient id="linear-gradient-9" x1="0" y1="0.5" x2="1" y2="0.5" xlink:href="#linear-gradient-6"/>
    <linearGradient id="linear-gradient-10" x1="0.503" y1="0.144" x2="0.523" y2="1.005" gradientUnits="objectBoundingBox">
      <stop offset="0" stop-color="#00aeef"/>
      <stop offset="1" stop-color="#21409a"/>
    </linearGradient>
  </defs>
  <g id="Layer_1-2" transform="translate(-0.003 -0.003)">
    <g id="Group_1" data-name="Group 1" transform="translate(0.003 0.003)">
      <path id="Path_1" data-name="Path 1" d="M220.542.567l7.61,7.61a16.51,16.51,0,0,0-1.414.905l-.1.073-6.3-6.3a1.643,1.643,0,0,0-2.324,0L211.959,8.9q-.227-.129-.466-.254c-.407-.213-.812-.4-1.2-.556L217.814.567a1.929,1.929,0,0,1,2.728,0Z" transform="translate(-202.326 -0.003)" fill="url(#linear-gradient)"/>
      <path id="Path_2" data-name="Path 2" d="M268.328,69.837l-5.6-5.6a1.644,1.644,0,0,0-2.324,0l-5.276,5.276c-.242-.162-.5-.321-.77-.476l6.049-6.05a1.643,1.643,0,0,1,2.324,0l6.3,6.3" transform="translate(-244.727 -60.14)" fill="url(#linear-gradient-2)"/>
      <path id="Path_3" data-name="Path 3" d="M280.209,434.949q-.027.591-.087,1.167a19.034,19.034,0,0,1-.343,2.151l-1.009-1.009a19.478,19.478,0,0,0,.43-2.064q.084-.549.14-1.114a23.241,23.241,0,0,0-.131-5.524,23.685,23.685,0,0,0-.868-3.835,23.456,23.456,0,0,1,1.406,4.519,23.152,23.152,0,0,1,.462,5.709Z" transform="translate(-267.799 -408.635)" fill="url(#linear-gradient-3)"/>
      <path id="Path_4" data-name="Path 4" d="M74.7,306.578q-.056.565-.14,1.114l-2.95-2.95-5.4-5.4a1.93,1.93,0,0,1,0-2.729l4.16-4.16.254-.254q.282.328.553.678l.006.008-3.723,3.724a1.93,1.93,0,0,0,0,2.728l4.408,4.408a21.435,21.435,0,0,0,.153-9.681,20.493,20.493,0,0,1,1.679,3.154,23.72,23.72,0,0,1,.868,3.835,23.241,23.241,0,0,1,.131,5.524Z" transform="translate(-63.157 -281.134)" fill="url(#linear-gradient-4)"/>
      <path id="Path_5" data-name="Path 5" d="M11.4,275.673a19.492,19.492,0,0,1-.429,2.064L.567,267.33a1.93,1.93,0,0,1,0-2.729l.855-.855,4.826-4.826a15.168,15.168,0,0,1,1.218,1.26l-.254.254-4.16,4.16a1.93,1.93,0,0,0,0,2.729l5.4,5.4,2.95,2.95Z" transform="translate(-0.003 -249.114)" fill="url(#linear-gradient-5)"/>
      <path id="Path_6" data-name="Path 6" d="M527.194,211.091a14.723,14.723,0,0,0-1.879,1.475,15.84,15.84,0,0,0-1.187,1.306q-.279.343-.545.708c-.046.063-.092.127-.137.191-.031.043-.061.086-.091.13h0a20.216,20.216,0,0,0-1.847,3.286,23.351,23.351,0,0,0-1.553,4.855,22.994,22.994,0,0,0-.434,6.193q.04.576.111,1.136h0c.021.187.029.231.045.333v0q.13.907.338,1.761l-1.175,1.26c-.052-.169-.13-.4-.175-.571q-.18-.737-.3-1.515c-.057-.362-.1-.732-.141-1.106q-.048-.478-.073-.967a23.991,23.991,0,0,1,.655-6.529,24.822,24.822,0,0,1,1.585-4.639c1.706-3.709,4.309-6.427,6.807-7.309Z" transform="translate(-498.504 -203.096)" fill="url(#linear-gradient-6)"/>
      <path id="Path_7" data-name="Path 7" d="M651.756,307.532l-4.436,4.436-.708.707q-.18-.447-.331-.916a17.437,17.437,0,0,1-.615-7.609.088.088,0,0,1,0-.011q.1-.2.2-.405c-.008.111-.015.221-.02.332a16.616,16.616,0,0,0,1.086,7.036l3.568-3.568a1.71,1.71,0,0,0,0-2.418l-2.373-2.373-1.045-1.045q.256-.375.525-.729l1.243,1.243,2.9,2.9a1.709,1.709,0,0,1,0,2.418Z" transform="translate(-621.057 -289.572)" fill="url(#linear-gradient-7)"/>
      <path id="Path_8" data-name="Path 8" d="M598.108,273.4l-6.666,6.666-3.788,3.788a19.9,19.9,0,0,1-.279-2.2q-.042-.59-.051-1.195a23.378,23.378,0,0,1,.483-5.042,23.111,23.111,0,0,1,1.877-5.544l.006-.012s0,.007,0,.011a17.448,17.448,0,0,0,.615,7.609q.151.468.331.916l.707-.707,4.436-4.436a1.71,1.71,0,0,0,0-2.418l-2.9-2.9-1.243-1.243a16.28,16.28,0,0,1,1.143-1.351l5.331,5.331a1.929,1.929,0,0,1,0,2.728Z" transform="translate(-565.078 -255.291)" fill="url(#linear-gradient-8)"/>
      <path id="Path_9" data-name="Path 9" d="M249.8,268.619q-.438.731-.849,1.5A29.311,29.311,0,0,0,241.71,260.1c.157.1.391.134.548.242a22.475,22.475,0,0,1,2.784,2.324A30.369,30.369,0,0,1,249.8,268.619Z" transform="translate(-232.556 -250.249)" fill="url(#linear-gradient-9)"/>
      <path id="Path_10" data-name="Path 10" d="M188.466,257.406l0,0q-.12-.122-.24-.24t-.244-.231l-.128-.118-.071-.063.708.678-.019-.019Z" transform="translate(-180.668 -247.026)" fill="none"/>
      <path id="Path_11" data-name="Path 11" d="M147.716,218.4c-.137-.139-.275-.27-.416-.4Z" transform="translate(-141.721 -209.744)" fill="none"/>
      <path id="Path_12" data-name="Path 12" d="M157.645,195.88l-.126.074h0c-.144.085-.289.173-.434.264h0q-.477.3-.952.642-.358.258-.716.538-.214.168-.427.344l-.142.118q-.113.095-.226.193l-.1.085-.015.013-.006.006-.11.1-.109.1-.139.125-.119.109-.142.132q-.107.1-.213.2l-.094.091-.077.075-.111.109-.111.11-.111.111-.118.12-.1.1c-.073.075-.146.152-.219.23l-.136.145-.082.088-.109.118-.15.166c-.094.1-.187.211-.281.317h0l-.107.123-.106.125-.1.123-.031.038-.147.176-.019.022-.043.052-.094.114-.062.076-.132.165-.13.164-.114.146q-.188.243-.373.491l-.152.206q-.114.155-.226.312l-.025.035-.057.08-.02.028-.122.175-.136.2q-.068.1-.136.2l-.075.112-.141.212-.1.147c-.045.069-.089.139-.134.209-.03.046-.059.092-.089.139l-.129.205c-.041.064-.08.129-.12.194-.062.1-.123.2-.185.3q-.405.675-.786,1.382a.067.067,0,0,1-.12,0c-2.061-4.378-4.239-7.59-6.713-9.62l0,0-.5-.372,0,0c-.093-.06-.107-.068-.2-.125l-.189-.115q-.189-.113-.378-.219-.378-.213-.754-.4l-.188-.091-.024-.011-.8-.348,0,0-.008,0-.008,0-.065-.025-.108-.041q-.2-.075-.4-.142c-.132-.044-.263-.086-.394-.125l-.112-.033c-.078-.022-.156-.043-.233-.064h-.006a.041.041,0,0,0-.027.005.047.047,0,0,0-.018.019.037.037,0,0,0,0,.012.043.043,0,0,0,.014.038l0,0c.134.113.262.224.387.338l0,0,0,0c.141.128.279.26.416.4l1.116,1.069.071.063.128.118c.082.076.163.153.244.231s.161.159.24.24l0,0,0,0,.019.019h0l.024.025.043.044.151.159c.15.16.3.325.443.494l.136.16q.27.323.531.667.195.258.383.527a21.117,21.117,0,0,1,2.748,5.607q.089.275.172.554c.028.093.055.187.081.281q.239.845.421,1.73a23.892,23.892,0,0,1,.427,3.08q.031.433.046.86a21.553,21.553,0,0,1-.095,2.916c0,.053,0,.061,0,.111a4.109,4.109,0,0,1-.057.421.006.006,0,0,0,0,0,.008.008,0,0,0,0,0c-.012.1-.025.189-.039.284s-.028.188-.043.281-.034.211-.053.315-.038.209-.058.312q-.036.183-.075.364c-.018.084-.036.167-.055.25h0v0s0,0,0,0c-.031.223-.058.443-.083.662-.009.078-.018.157-.026.235l2.292,2.292a1.969,1.969,0,0,0,1.577.57c.034,0,.067-.007.1-.012l.094-.016a1.96,1.96,0,0,0,.427-.135l.07-.033a1.973,1.973,0,0,0,.521-.374l.493-.493.987-.987.013-.013.25-.25.083-.083h0l.614-.614q-.072-.259-.136-.525-.18-.737-.3-1.515c-.057-.362-.1-.732-.141-1.106q-.048-.478-.073-.967a22.307,22.307,0,0,1,.073-3.284,23.828,23.828,0,0,1,2.153-7.882h.014c1.841-3.592,4.158-6.388,6.655-7.27h0q.3-.207.6-.389h0c.178-.108.358-.209.535-.3a13.043,13.043,0,0,0-3.541,1.451Z" transform="translate(-131.444 -187.066)" fill="url(#linear-gradient-10)"/>
      <path id="Path_13" data-name="Path 13" d="M350.01,726.49l.206.026.081-.66-.211-.026Z" transform="translate(-336.754 -698.341)" fill="#185cb0"/>
    </g>
  </g>
</svg>
