<svg xmlns="http://www.w3.org/2000/svg" xmlns:xlink="http://www.w3.org/1999/xlink" width="305" height="410" viewBox="0 0 305 410">
  <defs>
    <linearGradient id="linear-gradient" x1="0.5" x2="0.5" y2="1" gradientUnits="objectBoundingBox">
      <stop offset="0" stop-color="#00aeef"/>
      <stop offset="1" stop-color="#21409a"/>
    </linearGradient>
  </defs>
  <g id="Group_172" data-name="Group 172" transform="translate(-875 -179)">
    <g id="Group_20" data-name="Group 20" transform="translate(121 735)">
      <rect id="Rectangle_11" data-name="Rectangle 11" width="11" height="11" rx="3" transform="translate(797 -234)" fill="url(#linear-gradient)"/>
      <rect id="Rectangle_11-2" data-name="Rectangle 11" width="11" height="11" rx="3" transform="translate(814 -234)" fill="url(#linear-gradient)"/>
      <rect id="Rectangle_11-3" data-name="Rectangle 11" width="11" height="11" rx="3" transform="translate(831 -234)" fill="url(#linear-gradient)"/>
      <rect id="Rectangle_11-4" data-name="Rectangle 11" width="11" height="12" rx="3" transform="translate(797 -218)" fill="url(#linear-gradient)"/>
      <rect id="Rectangle_11-5" data-name="Rectangle 11" width="11" height="12" rx="3" transform="translate(814 -218)" fill="url(#linear-gradient)"/>
      <rect id="Rectangle_11-6" data-name="Rectangle 11" width="11" height="12" rx="3" transform="translate(831 -218)" fill="url(#linear-gradient)"/>
      <rect id="Rectangle_11-7" data-name="Rectangle 11" width="11" height="11" rx="3" transform="translate(797 -201)" fill="url(#linear-gradient)"/>
      <rect id="Rectangle_11-8" data-name="Rectangle 11" width="11" height="11" rx="3" transform="translate(814 -201)" fill="url(#linear-gradient)"/>
      <rect id="Rectangle_11-9" data-name="Rectangle 11" width="11" height="11" rx="3" transform="translate(831 -201)" fill="url(#linear-gradient)"/>
    </g>
    <g id="Group_23" data-name="Group 23" transform="translate(109 413)" opacity="0.19">
      <rect id="Rectangle_11-10" data-name="Rectangle 11" width="11" height="11" rx="3" transform="translate(797 -234)" fill="url(#linear-gradient)"/>
      <rect id="Rectangle_11-11" data-name="Rectangle 11" width="11" height="11" rx="3" transform="translate(814 -234)" fill="url(#linear-gradient)"/>
      <rect id="Rectangle_11-12" data-name="Rectangle 11" width="11" height="11" rx="3" transform="translate(831 -234)" fill="url(#linear-gradient)"/>
      <rect id="Rectangle_11-13" data-name="Rectangle 11" width="11" height="12" rx="3" transform="translate(797 -218)" fill="url(#linear-gradient)"/>
      <rect id="Rectangle_11-14" data-name="Rectangle 11" width="11" height="12" rx="3" transform="translate(814 -218)" fill="url(#linear-gradient)"/>
      <rect id="Rectangle_11-15" data-name="Rectangle 11" width="11" height="12" rx="3" transform="translate(831 -218)" fill="url(#linear-gradient)"/>
      <rect id="Rectangle_11-16" data-name="Rectangle 11" width="11" height="11" rx="3" transform="translate(797 -201)" fill="url(#linear-gradient)"/>
      <rect id="Rectangle_11-17" data-name="Rectangle 11" width="11" height="11" rx="3" transform="translate(814 -201)" fill="url(#linear-gradient)"/>
      <rect id="Rectangle_11-18" data-name="Rectangle 11" width="11" height="11" rx="3" transform="translate(831 -201)" fill="url(#linear-gradient)"/>
    </g>
    <g id="Group_24" data-name="Group 24" transform="translate(338 779)" opacity="0.19">
      <rect id="Rectangle_11-19" data-name="Rectangle 11" width="11" height="11" rx="3" transform="translate(797 -234)" fill="url(#linear-gradient)"/>
      <rect id="Rectangle_11-20" data-name="Rectangle 11" width="11" height="11" rx="3" transform="translate(814 -234)" fill="url(#linear-gradient)"/>
      <rect id="Rectangle_11-21" data-name="Rectangle 11" width="11" height="11" rx="3" transform="translate(831 -234)" fill="url(#linear-gradient)"/>
      <rect id="Rectangle_11-22" data-name="Rectangle 11" width="11" height="12" rx="3" transform="translate(797 -218)" fill="url(#linear-gradient)"/>
      <rect id="Rectangle_11-23" data-name="Rectangle 11" width="11" height="12" rx="3" transform="translate(814 -218)" fill="url(#linear-gradient)"/>
      <rect id="Rectangle_11-24" data-name="Rectangle 11" width="11" height="12" rx="3" transform="translate(831 -218)" fill="url(#linear-gradient)"/>
      <rect id="Rectangle_11-25" data-name="Rectangle 11" width="11" height="11" rx="3" transform="translate(797 -201)" fill="url(#linear-gradient)"/>
      <rect id="Rectangle_11-26" data-name="Rectangle 11" width="11" height="11" rx="3" transform="translate(814 -201)" fill="url(#linear-gradient)"/>
      <rect id="Rectangle_11-27" data-name="Rectangle 11" width="11" height="11" rx="3" transform="translate(831 -201)" fill="url(#linear-gradient)"/>
    </g>
    <g id="Group_22" data-name="Group 22" transform="translate(316 474)">
      <rect id="Rectangle_11-28" data-name="Rectangle 11" width="11" height="11" rx="3" transform="translate(797 -234)" fill="url(#linear-gradient)"/>
      <rect id="Rectangle_11-29" data-name="Rectangle 11" width="11" height="11" rx="3" transform="translate(814 -234)" fill="url(#linear-gradient)"/>
      <rect id="Rectangle_11-30" data-name="Rectangle 11" width="11" height="11" rx="3" transform="translate(831 -234)" fill="url(#linear-gradient)"/>
      <rect id="Rectangle_11-31" data-name="Rectangle 11" width="11" height="12" rx="3" transform="translate(797 -218)" fill="url(#linear-gradient)"/>
      <rect id="Rectangle_11-32" data-name="Rectangle 11" width="11" height="12" rx="3" transform="translate(814 -218)" fill="url(#linear-gradient)"/>
      <rect id="Rectangle_11-33" data-name="Rectangle 11" width="11" height="12" rx="3" transform="translate(831 -218)" fill="url(#linear-gradient)"/>
      <rect id="Rectangle_11-34" data-name="Rectangle 11" width="11" height="11" rx="3" transform="translate(797 -201)" fill="url(#linear-gradient)"/>
      <rect id="Rectangle_11-35" data-name="Rectangle 11" width="11" height="11" rx="3" transform="translate(814 -201)" fill="url(#linear-gradient)"/>
      <rect id="Rectangle_11-36" data-name="Rectangle 11" width="11" height="11" rx="3" transform="translate(831 -201)" fill="url(#linear-gradient)"/>
    </g>
    <g id="Group_171" data-name="Group 171" transform="translate(875.007 263.724)">
      <path id="Path_270" data-name="Path 270" d="M275.9,311.7,262.6,304.2a49.28,49.28,0,0,1,5.188-23.137c3.068,13.926,19.215,20.551,26.665,32.71a29.642,29.642,0,0,1,2.407,25.58l.875,10.8a49.671,49.671,0,0,1-31.186-27.516,47.982,47.982,0,0,1-3.329-11.567C269.421,311.727,275.9,311.7,275.9,311.7Z" transform="translate(-262.591 -229.381)" fill="#f2f2f2"/>
      <path id="Path_271" data-name="Path 271" d="M858.149,671.056l.408-9.175a29.633,29.633,0,0,1,13.822-3.5c-6.639,5.427-5.809,15.89-10.31,23.189A17.825,17.825,0,0,1,849,689.808l-5.555,3.4a29.869,29.869,0,0,1,6.3-24.2,28.856,28.856,0,0,1,5.3-4.927C856.372,667.587,858.149,671.056,858.149,671.056Z" transform="translate(-605.604 -452.379)" fill="#f2f2f2"/>
      <path id="Path_272" data-name="Path 272" d="M571.762,549.251h-5.031l-2.393-19.4h7.424Z" transform="translate(-333.531 -313.143)" fill="#ffb6b6"/>
      <path id="Path_273" data-name="Path 273" d="M824.778,731.244h-16.22v-.205a6.314,6.314,0,0,1,6.313-6.313h0l2.963-2.248,5.528,2.248h1.416Z" transform="translate(-585.265 -490.26)" fill="#2f2e41"/>
      <path id="Path_274" data-name="Path 274" d="M514.621,549.251h-5.03l-2.393-19.4h7.424Z" transform="translate(-299.761 -313.143)" fill="#ffb6b6"/>
      <path id="Path_275" data-name="Path 275" d="M767.638,731.244h-16.22v-.205a6.314,6.314,0,0,1,6.313-6.313h0l2.963-2.248,5.528,2.248h1.416Z" transform="translate(-551.494 -490.26)" fill="#2f2e41"/>
      <path id="Path_276" data-name="Path 276" d="M770.821,472.631l32.72.818c6.214,3.375,6.308,10.68,4.272,19.354,0,0,.687,5.155-.687,6.53s-2.062,1.375-1.375,3.78-2.944,6.335-2.5,6.776a17.786,17.786,0,0,1,1.472,2.847l-3.437,19.59s-2.406,34.024-3.093,34.711-1.375,0-.687,1.718,1.375,1.031.687,1.718a25.276,25.276,0,0,0-1.718,2.062h-8.309s-.627-3.437-.627-3.78-.687-2.406-.687-2.749.607-.951.607-.951a11.3,11.3,0,0,0,.424-2.142c0-.687,2.062-27.151,2.062-27.151l-4.124-34.368-9.967,33.68s0,29.556-.687,30.244-.687.344-.344,1.718,1.718,1.031.687,2.062-1.375-.687-1.031,1.031l.344,1.718L764.51,572s-1.375-2.9-.687-3.928.646-.75-.193-2.437-1.182-2.031-.839-2.375.344-2.172.344-2.172l1.718-32.883s.344-34.711.344-35.742a3.426,3.426,0,0,0-.285-1.546v-1.4l1.316-4.959Z" transform="translate(-558.138 -342.599)" fill="#2f2e41"/>
      <circle id="Ellipse_28" data-name="Ellipse 28" cx="10.166" cy="10.166" r="10.166" transform="translate(222.172 41.664)" fill="#ffb6b6"/>
      <path id="Path_277" data-name="Path 277" d="M793.128,315.572a10.494,10.494,0,0,0-4.252,6.129,58.082,58.082,0,0,0-2.5,13.877l-.794,14.1L775.747,379.7c8.526,7.215,40.576,1.64,40.576,1.64s.984-.328,0-1.312-1.942-.112-.958-1.1.306.112-.022-.872,0-.328.328-.656-2.539-3.279-2.539-3.279l2.624-17.234,3.279-34.762c-3.935-4.919-11.85-7.819-11.85-7.819l-2.045-3.681-10.225.818Z" transform="translate(-565.873 -246.856)" fill="#e6e6e6"/>
      <path id="Path_278" data-name="Path 278" d="M809.534,254.6a4.8,4.8,0,0,1,1.166.153,16.6,16.6,0,0,0,2.282.383,10.573,10.573,0,0,1,9.467,8.968c.591-.515,1.935-1.462,3.037-.582h0c.017.014.027.021.065,0,.732-.347,2.031-4.62,2.07-8.381.021-2-.294-4.546-1.908-5.354l-.085-.043-.022-.092c-.108-.449-1.313-1.216-3.408-1.813-3.807-1.084-9.482-3.2-12.678-.088-.242,1.048-1.029,3.291-1.823,3.545-.88.281-1.64.524-1.76,1.6a33.1,33.1,0,0,0,.022,4.613,4.711,4.711,0,0,1,1.674-2.351A3.317,3.317,0,0,1,809.534,254.6Z" transform="translate(-583.673 -208.734)" fill="#2f2e41"/>
      <path id="Path_279" data-name="Path 279" d="M719.292,372.747,735.9,362.112l-8.364-11.119-8.259,10.159-25.733,1.578a4.9,4.9,0,1,0-.275,7.227Z" transform="translate(-512.353 -270.711)" fill="#ffb6b6"/>
      <path id="Path_280" data-name="Path 280" d="M799.143,330.925c.964,5.833-17.237,16.971-17.237,16.971,0-1.369-10.864,8.967-11.354,7.831-1.394-3.227-2.373-10.871-4.321-12.094-1.114-.7,6.707-7.272,6.707-7.272s4.094-4.124,9.466-9.326a12.533,12.533,0,0,1,11.608-3.393S798.179,325.093,799.143,330.925Z" transform="translate(-560.185 -254.369)" fill="#e6e6e6"/>
      <path id="Path_281" data-name="Path 281" d="M898.868,387.342l-10.985-16.378-10.939,8.6,10.332,8.042L889.4,413.3a4.9,4.9,0,1,0,7.231.121Z" transform="translate(-625.681 -282.514)" fill="#ffb6b6"/>
      <path id="Path_282" data-name="Path 282" d="M855.886,333.987c5.811-1.087,17.333,16.874,17.333,16.874-1.369.029,9.195,10.671,8.07,11.186-3.2,1.462-10.818,2.6-12,4.576-.676,1.128-7.413-6.552-7.413-6.552s-4.21-4.006-9.525-9.267a12.533,12.533,0,0,1-3.638-11.534S850.075,335.075,855.886,333.987Z" transform="translate(-608.852 -260.632)" fill="#e6e6e6"/>
      <path id="Path_283" data-name="Path 283" d="M770.349,743.406a.485.485,0,0,1-.487.487H655.226a.487.487,0,1,1,0-.973H769.863a.485.485,0,0,1,.487.487Z" transform="translate(-494.357 -502.341)" fill="#ccc"/>
      <path id="Path_284" data-name="Path 284" d="M464.864,383.493H325.736a8.208,8.208,0,0,0-8.2,8.2v86.62a8.208,8.208,0,0,0,8.2,8.2H464.863a8.208,8.208,0,0,0,8.2-8.2v-86.62A8.208,8.208,0,0,0,464.864,383.493Z" transform="translate(-295.069 -289.918)" fill="#0b87d1"/>
      <path id="Path_285" data-name="Path 285" d="M464.864,383.493H325.736a8.208,8.208,0,0,0-8.2,8.2v86.62a8.208,8.208,0,0,0,8.2,8.2H464.863a8.208,8.208,0,0,0,8.2-8.2v-86.62A8.208,8.208,0,0,0,464.864,383.493Zm2.691,62.22a33.7,33.7,0,0,1-33.136,33.572c-14.117.184,7.811.255-9.215.255-38.933,0-79.53-.372-94.677-.613a7.638,7.638,0,0,1-7.481-7.607V391.7a2.7,2.7,0,0,1,2.69-2.7H464.858a2.7,2.7,0,0,1,2.7,2.689Z" transform="translate(-295.069 -289.918)" fill="#3f3d56"/>
      <path id="Path_286" data-name="Path 286" d="M452.479,261.538h-106a4.556,4.556,0,0,0-4.283,3.02l-16.371,45.93a4.547,4.547,0,0,0,4.276,6.073l142.165.252h.006a4.547,4.547,0,0,0,4.179-6.337l-.248.106.248-.106-19.793-46.182a4.541,4.541,0,0,0-4.179-2.755Z" transform="translate(-299.81 -217.842)" fill="#3f3d56"/>
      <path id="Path_287" data-name="Path 287" d="M476.818,377.059a4.557,4.557,0,0,1-.368,1.791L456.659,414.4a4.559,4.559,0,0,1-4.18,2.753h-106a4.559,4.559,0,0,1-4.286-3.018l-16.368-35.3a4.544,4.544,0,0,1,2.757-5.808,4.472,4.472,0,0,1,1.517-.266l17.366-.033,7.088-.012,93.267-.164,7.092-.012,17.354-.033h0a4.549,4.549,0,0,1,4.548,4.547Z" transform="translate(-299.81 -283.428)" fill="#3f3d56"/>
      <path id="Path_288" data-name="Path 288" d="M357.584,542.358c2.1,0,30.967,1.764,30.967,3.866s-28.865,3.746-30.967,3.746a3.806,3.806,0,0,1,0-7.612Z" transform="translate(-316.487 -383.808)" fill="#3f3d56"/>
      <path id="Path_289" data-name="Path 289" d="M477.531,193.221H388.154a9.045,9.045,0,0,0-9.035,9.035V311.191H484.133a4.49,4.49,0,0,0,2.434-.708V202.256a9.045,9.045,0,0,0-9.035-9.035Z" transform="translate(-331.464 -177.466)" fill="#e6e6e6"/>
      <path id="Path_290" data-name="Path 290" d="M453.659,211.131H404.678a8.237,8.237,0,0,0-8.229,8.225v102.42h93.267V247.188a36.1,36.1,0,0,0-36.057-36.057Z" transform="translate(-341.706 -188.051)" fill="#fff"/>
      <path id="Path_291" data-name="Path 291" d="M493.891,459.421H432.4a2,2,0,0,0,0,4.008h61.488a2,2,0,0,0,0-4.008Z" transform="translate(-361.771 -334.792)" fill="#e4e4e4"/>
      <path id="Path_292" data-name="Path 292" d="M493.888,440.041H432.4a2.006,2.006,0,1,0,0,4.012h61.488a2.006,2.006,0,1,0,0-4.012Z" transform="translate(-361.768 -323.338)" fill="#e4e4e4"/>
      <path id="Path_293" data-name="Path 293" d="M459.056,420.671H432.4a2,2,0,1,0,0,4.008h26.654a2,2,0,1,0,0-4.008Z" transform="translate(-361.77 -311.891)" fill="#e4e4e4"/>
      <path id="Path_294" data-name="Path 294" d="M493.888,380.091H432.4a2.006,2.006,0,0,0,0,4.012h61.488a2.006,2.006,0,0,0,0-4.012Z" transform="translate(-361.768 -287.907)" fill="#e4e4e4"/>
      <path id="Path_295" data-name="Path 295" d="M493.891,360.721H432.4a2,2,0,1,0,0,4.008h61.488a2,2,0,1,0,0-4.008Z" transform="translate(-361.771 -276.46)" fill="#e4e4e4"/>
      <path id="Path_296" data-name="Path 296" d="M459.053,341.341H432.4a2.006,2.006,0,0,0,0,4.012h26.654a2.006,2.006,0,1,0,0-4.012Z" transform="translate(-361.767 -265.006)" fill="#e4e4e4"/>
      <path id="Path_297" data-name="Path 297" d="M493.888,300.761H432.4a2.006,2.006,0,1,0,0,4.012h61.488a2.006,2.006,0,1,0,0-4.012Z" transform="translate(-361.768 -241.023)" fill="#0b87d1"/>
      <path id="Path_298" data-name="Path 298" d="M493.888,281.391H432.4a2.006,2.006,0,1,0,0,4.012h61.488a2.006,2.006,0,1,0,0-4.012Z" transform="translate(-361.768 -229.575)" fill="#0b87d1"/>
      <path id="Path_299" data-name="Path 299" d="M459.053,262.011H432.4a2.006,2.006,0,1,0,0,4.012h26.654a2.006,2.006,0,1,0,0-4.012Z" transform="translate(-361.767 -218.122)" fill="#0b87d1"/>
      <circle id="Ellipse_29" data-name="Ellipse 29" cx="15.608" cy="15.608" r="15.608" transform="translate(136.143 0)" fill="#0b87d1"/>
      <path id="Path_300" data-name="Path 300" d="M619.768,189.247a1.736,1.736,0,0,1-1.389-.695l-4.258-5.678a1.736,1.736,0,0,1,2.778-2.083l2.786,3.714,7.155-10.733a1.736,1.736,0,1,1,2.889,1.926l-8.517,12.775a1.737,1.737,0,0,1-1.4.773Z" transform="translate(-470.146 -165.516)" fill="#fff"/>
    </g>
  </g>
</svg>
